<?xml version="1.0" encoding="utf-8"?>
<!-- Generator: Adobe Illustrator 24.0.1, SVG Export Plug-In . SVG Version: 6.00 Build 0)  -->
<svg version="1.1" xmlns="http://www.w3.org/2000/svg" xmlns:xlink="http://www.w3.org/1999/xlink" x="0px" y="0px"
	 viewBox="0 0 920.5 629.7" style="enable-background:new 0 0 920.5 629.7;" xml:space="preserve">
<style type="text/css">
	.st0{display:none;}
	.st1{fill:#F5A623;}
	.st2{fill:#F8E71C;}
	.st3{fill:none;stroke:#000000;stroke-width:0.9361;}
	.st4{font-family:'Helvetica';}
	.st5{font-size:9.3611px;}
	.st6{display:inline;fill:none;}
	.st7{display:inline;}
	.st8{font-family:'MyriadPro-Regular';}
	.st9{font-size:30px;}
	.st10{font-family:'ArialMT';}
	.st11{font-size:10px;}
	.st12{font-family:'Arial-BoldMT';}
	.st13{font-size:12px;}
	.st14{font-size:15px;}
	.st15{fill:none;}
	.st16{fill:#7B7B7B;}
	.st17{font-size:14px;}
	.st18{enable-background:new    ;}
</style>
<g id="reglas" class="st0">
</g>
<g id="Capa_1">
	<g>
		<rect id="undefined_-_2011" x="692.2" y="321.8" class="st1" width="48.7" height="252.7"/>
		<rect id="undefined_-_2020" x="740.9" y="321.8" class="st2" width="48.7" height="252.7"/>
		<rect id="undefined_-_2011_1_" x="568.7" y="144.9" class="st1" width="48.7" height="429.7"/>
		<rect id="undefined_-_2020_1_" x="617.3" y="170.2" class="st2" width="48.7" height="404.4"/>
		<rect id="undefined_-_2011_2_" x="445.1" y="283.9" class="st1" width="48.7" height="290.7"/>
		<rect id="undefined_-_2020_2_" x="493.8" y="410.3" class="st2" width="48.7" height="164.3"/>
		<rect id="undefined_-_2011_3_" x="321.5" y="309.2" class="st1" width="48.7" height="265.4"/>
		<rect id="undefined_-_2020_3_" x="370.2" y="385" class="st2" width="48.7" height="189.6"/>
		<rect id="undefined_-_2011_4_" x="198" y="385" class="st1" width="48.7" height="189.6"/>
		<rect id="undefined_-_2020_4_" x="246.6" y="422.9" class="st2" width="48.7" height="151.6"/>
		<rect id="undefined_-_2011_5_" x="74.4" y="119.6" class="st1" width="48.7" height="454.9"/>
		<rect id="undefined_-_2020_5_" x="123.1" y="132.2" class="st2" width="48.7" height="442.3"/>
	</g>
	<path class="st3" d="M48.6,575h767.6"/>
	<g id="yAxis">
		<path class="st3" d="M48.6,575V69.5"/>
		<g transform="translate(0,540.5)">
			<line class="st3" x1="48.2" y1="34.5" x2="42.6" y2="34.5"/>
			<text transform="matrix(1 0 0 1 21.5361 37.516)" class="st4 st5">0.00</text>
		</g>
		<g transform="translate(0,473)">
			<line class="st3" x1="48.2" y1="38.8" x2="42.6" y2="38.8"/>
			<text transform="matrix(1 0 0 1 21.5361 41.8295)" class="st4 st5">0.05</text>
		</g>
		<g transform="translate(0,405.5)">
			<line class="st3" x1="48.2" y1="43.1" x2="42.6" y2="43.1"/>
			<text transform="matrix(1 0 0 1 21.5361 46.142)" class="st4 st5">0.10</text>
		</g>
		<g transform="translate(0,338)">
			<line class="st3" x1="48.2" y1="47.5" x2="42.6" y2="47.5"/>
			<text transform="matrix(1 0 0 1 21.5361 50.4545)" class="st4 st5">0.15</text>
		</g>
		<g transform="translate(0,270.5)">
			<line class="st3" x1="48.2" y1="51.8" x2="42.6" y2="51.8"/>
			<text transform="matrix(1 0 0 1 21.5361 54.7675)" class="st4 st5">0.20</text>
		</g>
		<g transform="translate(0,203)">
			<line class="st3" x1="48.2" y1="56.1" x2="42.6" y2="56.1"/>
			<text transform="matrix(1 0 0 1 21.5361 59.08)" class="st4 st5">0.25</text>
		</g>
		<g transform="translate(0,135.50000000000006)">
			<line class="st3" x1="48.2" y1="60.4" x2="42.6" y2="60.4"/>
			<text transform="matrix(1 0 0 1 21.5361 63.3925)" class="st4 st5">0.30</text>
		</g>
		<g transform="translate(0,68.00000000000006)">
			<line class="st3" x1="48.2" y1="64.7" x2="42.6" y2="64.7"/>
			<text transform="matrix(1 0 0 1 21.5361 67.705)" class="st4 st5">0.35</text>
		</g>
		<g transform="translate(0,0.5)">
			<line class="st3" x1="48.2" y1="69" x2="42.6" y2="69"/>
			<text transform="matrix(1 0 0 1 21.5361 72.0175)" class="st4 st5">0.40</text>
		</g>
	</g>
	<rect x="829.8" y="84" class="st1" width="14" height="14"/>
	<rect x="829.8" y="103.7" class="st2" width="14" height="14"/>
</g>
<g id="texto" class="st0">
	<rect x="50.5" y="15.4" class="st6" width="690.6" height="46.3"/>
	<text transform="matrix(1 0 0 1 50.5 36.7284)" class="st7 st8 st9">Brechas por dimensión ICVU 2011-2020</text>
	<text transform="matrix(1 0 0 1 905 101.2143)" class="st7 st10 st11">2011</text>
	<text transform="matrix(1 0 0 1 905 122.2143)" class="st7 st10 st11">2020</text>
	<text transform="matrix(1 0 0 1 885 72.7143)" class="st7 st12 st13">Años</text>
	<text transform="matrix(1 0 0 1 111.728 -60.324)" class="st12 st13" style="display:inline;fill:#7B7B7B;">Coeficiente de variabilidad</text>
	<rect x="78" y="622.7" class="st6" width="104" height="44.6"/>
	<text transform="matrix(1 0 0 1 78.0093 633.5097)" class="st7"><tspan x="0" y="0" class="st4 st14">Vivienda </tspan><tspan x="0" y="18" class="st4 st14">y entorno</tspan></text>
	<rect x="210" y="622.7" class="st6" width="104" height="44.6"/>
	<text transform="matrix(1 0 0 1 210.0077 633.5097)" class="st7"><tspan x="0" y="0" class="st4 st14">Salud y </tspan><tspan x="0" y="18" class="st4 st14">medioambiente</tspan></text>
	<g class="st7">
		<rect x="342" y="622.7" class="st15" width="104" height="44.6"/>
		<text transform="matrix(1 0 0 1 342.0061 633.5097)"><tspan x="0" y="0" class="st4 st14">Conectividad </tspan><tspan x="0" y="18" class="st4 st14">y movilidad</tspan></text>
	</g>
	<g class="st7">
		<rect x="474" y="622.7" class="st15" width="104" height="44.6"/>
		<text transform="matrix(1 0 0 1 474.005 633.5097)"><tspan x="0" y="0" class="st4 st14">Condiciones </tspan><tspan x="0" y="18" class="st4 st14">socioculturales</tspan></text>
	</g>
	<g class="st7">
		<rect x="606" y="622.7" class="st15" width="104" height="44.6"/>
		<text transform="matrix(1 0 0 1 606.003 633.5097)"><tspan x="0" y="0" class="st4 st14">Ambiente </tspan><tspan x="0" y="18" class="st4 st14">de negocios</tspan></text>
	</g>
	<g class="st7">
		<rect x="738" y="622.7" class="st15" width="104" height="44.6"/>
		<text transform="matrix(1 0 0 1 738.0019 633.5097)"><tspan x="0" y="0" class="st4 st14">Condiciones</tspan><tspan x="0" y="18" class="st4 st14">laborales</tspan></text>
	</g>
	<g class="st7">
		<rect x="875.1" y="599.8" class="st15" width="92.4" height="12.9"/>
		<text transform="matrix(1 0 0 1 875.1369 609.8436)" class="st16 st12 st17">Dimensiones</text>
	</g>
	<g class="st7">
		<rect x="78" y="70" class="st15" width="158" height="12.9"/>
		<text transform="matrix(1 0 0 1 78.0097 78.5593)" class="st16 st12 st13">Coeficiente de variabilidad</text>
	</g>
</g>
<g id="texto_copia">
	<g>
		<path d="M50.8,16.7c1.1-0.3,2.8-0.4,4.5-0.4c2.4,0,4,0.4,5.2,1.4c1,0.7,1.6,1.9,1.6,3.3c0,1.9-1.2,3.5-3.2,4.2v0.1
			c1.8,0.4,3.9,1.9,3.9,4.7c0,1.6-0.6,2.9-1.6,3.8c-1.3,1.2-3.4,1.8-6.5,1.8c-1.7,0-3-0.1-3.8-0.2V16.7z M53.2,24.5h2.2
			c2.6,0,4.1-1.4,4.1-3.2c0-2.2-1.7-3.1-4.1-3.1c-1.1,0-1.8,0.1-2.2,0.2V24.5z M53.2,33.5c0.5,0.1,1.2,0.1,2.1,0.1
			c2.5,0,4.9-0.9,4.9-3.7c0-2.6-2.2-3.7-4.9-3.7h-2V33.5z"/>
		<path d="M65.9,26c0-1.6,0-3-0.1-4.2H68l0.1,2.7h0.1c0.6-1.8,2.1-3,3.8-3c0.3,0,0.4,0,0.7,0.1v2.3c-0.3-0.1-0.5-0.1-0.8-0.1
			c-1.7,0-3,1.3-3.3,3.1c-0.1,0.3-0.1,0.8-0.1,1.2v7.2h-2.5V26z"/>
		<path d="M76.2,29c0.1,3.3,2.2,4.7,4.7,4.7c1.8,0,2.9-0.3,3.8-0.7l0.4,1.8c-0.9,0.4-2.4,0.9-4.5,0.9c-4.2,0-6.7-2.8-6.7-6.9
			c0-4.1,2.4-7.3,6.4-7.3c4.5,0,5.6,3.9,5.6,6.4c0,0.5,0,0.9-0.1,1.2H76.2z M83.4,27.3c0-1.5-0.6-4-3.4-4c-2.5,0-3.6,2.3-3.8,4H83.4
			z"/>
		<path d="M98.6,34.9c-0.6,0.3-2.1,0.8-3.9,0.8c-4.1,0-6.8-2.8-6.8-6.9c0-4.2,2.9-7.2,7.3-7.2c1.5,0,2.8,0.4,3.4,0.7l-0.6,1.9
			c-0.6-0.3-1.5-0.6-2.9-0.6c-3.1,0-4.8,2.3-4.8,5.1c0,3.1,2,5.1,4.7,5.1c1.4,0,2.3-0.3,3-0.6L98.6,34.9z"/>
		<path d="M101.5,15.4h2.5v8.5h0.1c0.4-0.7,1-1.3,1.8-1.8c0.7-0.4,1.6-0.7,2.5-0.7c1.8,0,4.7,1.1,4.7,5.8v8.1h-2.5v-7.8
			c0-2.2-0.8-4-3.1-4c-1.6,0-2.8,1.1-3.3,2.4c-0.1,0.4-0.2,0.7-0.2,1.2v8.2h-2.5V15.4z"/>
		<path d="M126.6,32.1c0,1.2,0.1,2.3,0.2,3.3h-2.2l-0.2-1.7h-0.1c-0.8,1.1-2.2,2-4.2,2c-2.8,0-4.2-1.9-4.2-3.9
			c0-3.3,2.9-5.1,8.2-5.1v-0.3c0-1.1-0.3-3.1-3.1-3.1c-1.3,0-2.6,0.4-3.6,1l-0.6-1.7c1.1-0.7,2.8-1.2,4.5-1.2c4.2,0,5.2,2.8,5.2,5.5
			V32.1z M124.2,28.4c-2.7-0.1-5.8,0.4-5.8,3.1c0,1.6,1.1,2.4,2.3,2.4c1.8,0,2.9-1.1,3.3-2.3c0.1-0.3,0.1-0.6,0.1-0.8V28.4z"/>
		<path d="M130.3,32.9c0.8,0.4,2.1,1,3.3,1c1.8,0,2.6-0.9,2.6-2c0-1.2-0.7-1.8-2.5-2.5c-2.5-0.9-3.6-2.2-3.6-3.8c0-2.2,1.8-4,4.7-4
			c1.4,0,2.6,0.4,3.3,0.8l-0.6,1.8c-0.5-0.3-1.5-0.8-2.8-0.8c-1.5,0-2.2,0.8-2.2,1.9c0,1.1,0.8,1.6,2.6,2.3c2.3,0.9,3.6,2.1,3.6,4.1
			c0,2.4-1.9,4.1-5.1,4.1c-1.5,0-2.9-0.4-3.8-1L130.3,32.9z"/>
		<path d="M147.7,26.2c0-1.7-0.1-3.1-0.1-4.4h2.2l0.1,2.3h0.1c1-1.7,2.6-2.6,4.8-2.6c3.3,0,5.8,2.8,5.8,6.9c0,4.9-3,7.3-6.2,7.3
			c-1.8,0-3.4-0.8-4.2-2.1h-0.1v7.4h-2.4V26.2z M150.1,29.8c0,0.4,0,0.7,0.1,1c0.4,1.7,1.9,2.9,3.7,2.9c2.6,0,4.1-2.1,4.1-5.3
			c0-2.7-1.4-5-4-5c-1.7,0-3.3,1.2-3.7,3c-0.1,0.3-0.2,0.7-0.2,1V29.8z"/>
		<path d="M175.9,28.5c0,5-3.5,7.2-6.8,7.2c-3.7,0-6.5-2.7-6.5-7c0-4.5,3-7.2,6.7-7.2C173.3,21.5,175.9,24.3,175.9,28.5z
			 M165.2,28.6c0,3,1.7,5.2,4.1,5.2c2.4,0,4.1-2.2,4.1-5.3c0-2.3-1.2-5.2-4.1-5.2C166.5,23.3,165.2,26,165.2,28.6z"/>
		<path d="M179.1,26c0-1.6,0-3-0.1-4.2h2.2l0.1,2.7h0.1c0.6-1.8,2.1-3,3.8-3c0.3,0,0.4,0,0.7,0.1v2.3c-0.3-0.1-0.5-0.1-0.8-0.1
			c-1.7,0-3,1.3-3.3,3.1c-0.1,0.3-0.1,0.8-0.1,1.2v7.2h-2.5V26z"/>
		<path d="M205.9,15.4v16.4c0,1.2,0.1,2.6,0.1,3.5h-2.2l-0.1-2.4h-0.1c-0.7,1.5-2.4,2.7-4.6,2.7c-3.3,0-5.8-2.8-5.8-6.9
			c0-4.5,2.8-7.3,6.1-7.3c2.1,0,3.5,1,4.1,2.1h0.1v-8.1H205.9z M203.5,27.3c0-0.3,0-0.7-0.1-1c-0.4-1.5-1.7-2.8-3.6-2.8
			c-2.6,0-4.1,2.2-4.1,5.2c0,2.8,1.4,5,4,5c1.7,0,3.2-1.1,3.6-2.9c0.1-0.3,0.1-0.7,0.1-1.1V27.3z"/>
		<path d="M212.8,18c0,0.8-0.6,1.5-1.6,1.5c-0.9,0-1.5-0.7-1.5-1.5s0.6-1.5,1.5-1.5C212.2,16.4,212.8,17.1,212.8,18z M210,35.4V21.8
			h2.5v13.6H210z"/>
		<path d="M216.6,25.5c0-1.4-0.1-2.6-0.1-3.7h2.2l0.1,2.2h0.1c0.8-1.3,2-2.5,4.3-2.5c1.8,0,3.2,1.1,3.8,2.7h0.1
			c0.4-0.8,1-1.3,1.5-1.8c0.8-0.6,1.7-1,3-1c1.8,0,4.5,1.2,4.5,5.9v8h-2.4v-7.7c0-2.6-1-4.2-2.9-4.2c-1.4,0-2.5,1-2.9,2.2
			c-0.1,0.4-0.2,0.8-0.2,1.2v8.4h-2.4v-8.1c0-2.2-1-3.7-2.8-3.7c-1.5,0-2.7,1.2-3.1,2.5c-0.1,0.3-0.2,0.8-0.2,1.2v8.2h-2.4V25.5z"/>
		<path d="M241.4,29c0.1,3.3,2.2,4.7,4.7,4.7c1.8,0,2.9-0.3,3.8-0.7l0.4,1.8c-0.9,0.4-2.4,0.9-4.5,0.9c-4.2,0-6.7-2.8-6.7-6.9
			c0-4.1,2.4-7.3,6.4-7.3c4.5,0,5.6,3.9,5.6,6.4c0,0.5,0,0.9-0.1,1.2H241.4z M248.7,27.3c0-1.5-0.6-4-3.4-4c-2.5,0-3.6,2.3-3.8,4
			H248.7z"/>
		<path d="M254.1,25.5c0-1.4,0-2.6-0.1-3.7h2.2l0.1,2.2h0.1c0.7-1.3,2.2-2.5,4.5-2.5c1.9,0,4.8,1.1,4.8,5.8v8.1h-2.5v-7.8
			c0-2.2-0.8-4-3.1-4c-1.6,0-2.9,1.2-3.3,2.5c-0.1,0.3-0.2,0.7-0.2,1.2v8.2h-2.5V25.5z"/>
		<path d="M269.4,32.9c0.8,0.4,2.1,1,3.3,1c1.8,0,2.6-0.9,2.6-2c0-1.2-0.7-1.8-2.5-2.5c-2.5-0.9-3.6-2.2-3.6-3.8c0-2.2,1.8-4,4.7-4
			c1.4,0,2.6,0.4,3.3,0.8l-0.6,1.8c-0.5-0.3-1.5-0.8-2.8-0.8c-1.5,0-2.2,0.8-2.2,1.9c0,1.1,0.8,1.6,2.6,2.3c2.3,0.9,3.6,2.1,3.6,4.1
			c0,2.4-1.9,4.1-5.1,4.1c-1.5,0-2.9-0.4-3.8-1L269.4,32.9z"/>
		<path d="M283.6,18c0,0.8-0.6,1.5-1.6,1.5c-0.9,0-1.5-0.7-1.5-1.5s0.6-1.5,1.5-1.5C282.9,16.4,283.6,17.1,283.6,18z M280.8,35.4
			V21.8h2.5v13.6H280.8z"/>
		<path d="M299.7,28.5c0,5-3.5,7.2-6.8,7.2c-3.7,0-6.5-2.7-6.5-7c0-4.5,3-7.2,6.7-7.2C297,21.5,299.7,24.3,299.7,28.5z M288.9,28.6
			c0,3,1.7,5.2,4.1,5.2c2.4,0,4.1-2.2,4.1-5.3c0-2.3-1.2-5.2-4.1-5.2C290.2,23.3,288.9,26,288.9,28.6z M296.7,15.9l-3.4,4h-1.7
			l2.4-4H296.7z"/>
		<path d="M302.8,25.5c0-1.4,0-2.6-0.1-3.7h2.2L305,24h0.1c0.7-1.3,2.2-2.5,4.5-2.5c1.9,0,4.8,1.1,4.8,5.8v8.1h-2.5v-7.8
			c0-2.2-0.8-4-3.1-4c-1.6,0-2.9,1.2-3.3,2.5c-0.1,0.3-0.2,0.7-0.2,1.2v8.2h-2.5V25.5z"/>
		<path d="M326.9,16.4v18.9h-2.5V16.4H326.9z"/>
		<path d="M344.3,34.8c-0.9,0.4-2.7,0.9-5,0.9c-5.3,0-9.3-3.4-9.3-9.6c0-6,4-9.9,9.9-9.9c2.3,0,3.8,0.5,4.5,0.8l-0.6,2
			c-0.9-0.4-2.2-0.8-3.8-0.8c-4.4,0-7.4,2.8-7.4,7.8c0,4.7,2.7,7.6,7.2,7.6c1.5,0,3-0.3,4-0.8L344.3,34.8z"/>
		<path d="M351.9,35.4l-6.2-18.9h2.7l2.9,9.3c0.8,2.6,1.5,4.9,2,7.1h0.1c0.5-2.2,1.3-4.6,2.2-7l3.2-9.4h2.6l-6.8,18.9H351.9z"/>
		<path d="M365.9,16.4v11.2c0,4.2,1.9,6,4.4,6c2.8,0,4.6-1.9,4.6-6V16.4h2.5v11.1c0,5.8-3.1,8.2-7.2,8.2c-3.9,0-6.8-2.2-6.8-8.1
			V16.4H365.9z"/>
		<path d="M386.7,35.4v-1.5l1.9-1.9c4.7-4.4,6.8-6.8,6.8-9.5c0-1.9-0.9-3.6-3.6-3.6c-1.7,0-3,0.8-3.9,1.5l-0.8-1.7
			c1.2-1,3.1-1.9,5.1-1.9c3.9,0,5.6,2.7,5.6,5.3c0,3.4-2.4,6.1-6.3,9.8l-1.4,1.3v0.1h8.2v2.1H386.7z"/>
		<path d="M413.2,26c0,6.2-2.3,9.6-6.3,9.6c-3.6,0-6-3.3-6.1-9.4c0-6.2,2.7-9.5,6.4-9.5C411,16.8,413.2,20.2,413.2,26z M403.3,26.3
			c0,4.7,1.5,7.4,3.7,7.4c2.5,0,3.7-2.9,3.7-7.6c0-4.5-1.1-7.4-3.7-7.4C404.9,18.7,403.3,21.4,403.3,26.3z"/>
		<path d="M420.9,19.4L420.9,19.4l-3.2,1.7l-0.5-1.9l4-2.1h2.1v18.3h-2.4V19.4z"/>
		<path d="M435.3,19.4L435.3,19.4l-3.2,1.7l-0.5-1.9l4-2.1h2.1v18.3h-2.4V19.4z"/>
		<path d="M450.8,26.9v1.8h-6.9v-1.8H450.8z"/>
		<path d="M452.9,35.4v-1.5l1.9-1.9c4.7-4.4,6.8-6.8,6.8-9.5c0-1.9-0.9-3.6-3.6-3.6c-1.7,0-3,0.8-3.9,1.5l-0.8-1.7
			c1.2-1,3.1-1.9,5.1-1.9c3.9,0,5.6,2.7,5.6,5.3c0,3.4-2.4,6.1-6.3,9.8l-1.4,1.3v0.1h8.2v2.1H452.9z"/>
		<path d="M479.5,26c0,6.2-2.3,9.6-6.3,9.6c-3.6,0-6-3.3-6.1-9.4c0-6.2,2.7-9.5,6.4-9.5C477.3,16.8,479.5,20.2,479.5,26z
			 M469.6,26.3c0,4.7,1.5,7.4,3.7,7.4c2.5,0,3.7-2.9,3.7-7.6c0-4.5-1.1-7.4-3.7-7.4C471.2,18.7,469.6,21.4,469.6,26.3z"/>
		<path d="M481.7,35.4v-1.5l1.9-1.9c4.7-4.4,6.8-6.8,6.8-9.5c0-1.9-0.9-3.6-3.6-3.6c-1.7,0-3,0.8-3.9,1.5l-0.8-1.7
			c1.2-1,3.1-1.9,5.1-1.9c3.9,0,5.6,2.7,5.6,5.3c0,3.4-2.4,6.1-6.3,9.8l-1.4,1.3v0.1h8.2v2.1H481.7z"/>
		<path d="M508.3,26c0,6.2-2.3,9.6-6.3,9.6c-3.6,0-6-3.3-6.1-9.4c0-6.2,2.7-9.5,6.4-9.5C506.1,16.8,508.3,20.2,508.3,26z
			 M498.4,26.3c0,4.7,1.5,7.4,3.7,7.4c2.5,0,3.7-2.9,3.7-7.6c0-4.5-1.1-7.4-3.7-7.4C500,18.7,498.4,21.4,498.4,26.3z"/>
	</g>
	<g class="st18">
		<path d="M853.3,94.9v0.8h-4.4c0-0.2,0-0.4,0.1-0.6c0.1-0.3,0.3-0.6,0.5-0.9c0.2-0.3,0.6-0.6,1.1-1c0.7-0.6,1.2-1.1,1.5-1.4
			c0.3-0.3,0.4-0.7,0.4-1c0-0.3-0.1-0.6-0.3-0.8c-0.2-0.2-0.5-0.3-0.9-0.3c-0.4,0-0.7,0.1-1,0.4c-0.2,0.2-0.4,0.6-0.4,1l-0.8-0.1
			c0.1-0.6,0.3-1.1,0.7-1.4c0.4-0.3,0.9-0.5,1.5-0.5c0.6,0,1.2,0.2,1.5,0.5s0.6,0.8,0.6,1.3c0,0.3-0.1,0.5-0.2,0.8
			c-0.1,0.3-0.3,0.5-0.5,0.8c-0.3,0.3-0.7,0.7-1.3,1.2c-0.5,0.4-0.8,0.7-1,0.8c-0.1,0.1-0.3,0.3-0.3,0.4H853.3z"/>
		<path d="M854.1,92.4c0-0.8,0.1-1.4,0.2-1.9c0.2-0.5,0.4-0.9,0.7-1.1c0.3-0.3,0.7-0.4,1.2-0.4c0.4,0,0.7,0.1,0.9,0.2
			c0.3,0.1,0.5,0.4,0.7,0.6c0.2,0.3,0.3,0.6,0.4,1c0.1,0.4,0.2,0.9,0.2,1.6c0,0.8-0.1,1.4-0.2,1.9c-0.2,0.5-0.4,0.9-0.7,1.1
			c-0.3,0.3-0.7,0.4-1.2,0.4c-0.6,0-1.2-0.2-1.5-0.7C854.4,94.6,854.1,93.7,854.1,92.4z M855,92.4c0,1.1,0.1,1.8,0.4,2.2
			c0.3,0.4,0.6,0.5,1,0.5s0.7-0.2,1-0.5c0.3-0.4,0.4-1.1,0.4-2.2c0-1.1-0.1-1.8-0.4-2.2c-0.3-0.4-0.6-0.5-1-0.5
			c-0.4,0-0.7,0.2-0.9,0.5C855.1,90.6,855,91.3,855,92.4z"/>
		<path d="M862.5,95.7h-0.8v-5.2c-0.2,0.2-0.5,0.4-0.8,0.6c-0.3,0.2-0.6,0.3-0.9,0.4v-0.8c0.5-0.2,0.9-0.5,1.2-0.8s0.6-0.6,0.7-0.9
			h0.5V95.7z"/>
		<path d="M867,95.7h-0.8v-5.2c-0.2,0.2-0.5,0.4-0.8,0.6c-0.3,0.2-0.6,0.3-0.9,0.4v-0.8c0.5-0.2,0.9-0.5,1.2-0.8s0.6-0.6,0.7-0.9
			h0.5V95.7z"/>
	</g>
	<g class="st18">
		<path d="M853.3,114.6v0.8h-4.4c0-0.2,0-0.4,0.1-0.6c0.1-0.3,0.3-0.6,0.5-0.9c0.2-0.3,0.6-0.6,1.1-1c0.7-0.6,1.2-1.1,1.5-1.4
			c0.3-0.3,0.4-0.7,0.4-1c0-0.3-0.1-0.6-0.3-0.8c-0.2-0.2-0.5-0.3-0.9-0.3c-0.4,0-0.7,0.1-1,0.4c-0.2,0.2-0.4,0.6-0.4,1l-0.8-0.1
			c0.1-0.6,0.3-1.1,0.7-1.4c0.4-0.3,0.9-0.5,1.5-0.5c0.6,0,1.2,0.2,1.5,0.5c0.4,0.4,0.6,0.8,0.6,1.3c0,0.3-0.1,0.5-0.2,0.8
			c-0.1,0.3-0.3,0.5-0.5,0.8c-0.3,0.3-0.7,0.7-1.3,1.2c-0.5,0.4-0.8,0.7-1,0.8c-0.1,0.1-0.3,0.3-0.3,0.4H853.3z"/>
		<path d="M854.1,112.1c0-0.8,0.1-1.4,0.2-1.9c0.2-0.5,0.4-0.9,0.7-1.1c0.3-0.3,0.7-0.4,1.2-0.4c0.4,0,0.7,0.1,0.9,0.2
			c0.3,0.1,0.5,0.4,0.7,0.6c0.2,0.3,0.3,0.6,0.4,1c0.1,0.4,0.2,0.9,0.2,1.6c0,0.8-0.1,1.4-0.2,1.9c-0.2,0.5-0.4,0.9-0.7,1.1
			c-0.3,0.3-0.7,0.4-1.2,0.4c-0.6,0-1.2-0.2-1.5-0.7C854.4,114.3,854.1,113.3,854.1,112.1z M855,112.1c0,1.1,0.1,1.8,0.4,2.2
			c0.3,0.4,0.6,0.5,1,0.5s0.7-0.2,1-0.5c0.3-0.4,0.4-1.1,0.4-2.2c0-1.1-0.1-1.8-0.4-2.2c-0.3-0.4-0.6-0.5-1-0.5
			c-0.4,0-0.7,0.2-0.9,0.5C855.1,110.2,855,111,855,112.1z"/>
		<path d="M863.7,114.6v0.8h-4.4c0-0.2,0-0.4,0.1-0.6c0.1-0.3,0.3-0.6,0.5-0.9c0.2-0.3,0.6-0.6,1.1-1c0.7-0.6,1.2-1.1,1.5-1.4
			c0.3-0.3,0.4-0.7,0.4-1c0-0.3-0.1-0.6-0.3-0.8c-0.2-0.2-0.5-0.3-0.9-0.3c-0.4,0-0.7,0.1-1,0.4c-0.2,0.2-0.4,0.6-0.4,1l-0.8-0.1
			c0.1-0.6,0.3-1.1,0.7-1.4c0.4-0.3,0.9-0.5,1.5-0.5c0.6,0,1.2,0.2,1.5,0.5c0.4,0.4,0.6,0.8,0.6,1.3c0,0.3-0.1,0.5-0.2,0.8
			c-0.1,0.3-0.3,0.5-0.5,0.8c-0.3,0.3-0.7,0.7-1.3,1.2c-0.5,0.4-0.8,0.7-1,0.8c-0.1,0.1-0.3,0.3-0.3,0.4H863.7z"/>
		<path d="M864.6,112.1c0-0.8,0.1-1.4,0.2-1.9c0.2-0.5,0.4-0.9,0.7-1.1c0.3-0.3,0.7-0.4,1.2-0.4c0.4,0,0.7,0.1,0.9,0.2
			c0.3,0.1,0.5,0.4,0.7,0.6c0.2,0.3,0.3,0.6,0.4,1c0.1,0.4,0.2,0.9,0.2,1.6c0,0.8-0.1,1.4-0.2,1.9c-0.2,0.5-0.4,0.9-0.7,1.1
			c-0.3,0.3-0.7,0.4-1.2,0.4c-0.6,0-1.2-0.2-1.5-0.7C864.8,114.3,864.6,113.3,864.6,112.1z M865.4,112.1c0,1.1,0.1,1.8,0.4,2.2
			c0.3,0.4,0.6,0.5,1,0.5s0.7-0.2,1-0.5c0.3-0.4,0.4-1.1,0.4-2.2c0-1.1-0.1-1.8-0.4-2.2c-0.3-0.4-0.6-0.5-1-0.5
			c-0.4,0-0.7,0.2-0.9,0.5C865.5,110.2,865.4,111,865.4,112.1z"/>
	</g>
	<g class="st18">
		<path d="M837.9,69.1h-1.8l-0.7-1.8h-3.2l-0.7,1.8h-1.7l3.1-8h1.7L837.9,69.1z M834.9,65.9l-1.1-3l-1.1,3H834.9z"/>
		<path d="M844,69.1h-1.5v-3c0-0.6,0-1-0.1-1.2s-0.2-0.3-0.3-0.4c-0.1-0.1-0.3-0.2-0.5-0.2c-0.3,0-0.5,0.1-0.7,0.2
			c-0.2,0.1-0.4,0.3-0.4,0.6s-0.1,0.7-0.1,1.3v2.6h-1.5v-5.8h1.4v0.9c0.5-0.7,1.1-1,1.9-1c0.3,0,0.7,0.1,0.9,0.2
			c0.3,0.1,0.5,0.3,0.6,0.5c0.1,0.2,0.2,0.4,0.3,0.6c0.1,0.2,0.1,0.6,0.1,1V69.1z M840.2,62.4h-0.7c0-0.1,0-0.1,0-0.2
			c0-0.4,0.1-0.7,0.3-0.9c0.2-0.2,0.4-0.3,0.7-0.3c0.1,0,0.2,0,0.4,0c0.1,0,0.3,0.1,0.6,0.2c0.3,0.1,0.5,0.2,0.7,0.2
			c0.1,0,0.2,0,0.3-0.1c0.1-0.1,0.1-0.2,0.2-0.4h0.7c0,0.5-0.1,0.8-0.3,1.1c-0.2,0.2-0.4,0.3-0.7,0.3c-0.1,0-0.2,0-0.4,0
			c-0.1,0-0.3-0.1-0.6-0.2c-0.3-0.1-0.6-0.2-0.7-0.2c-0.1,0-0.2,0-0.3,0.1C840.2,62.1,840.2,62.3,840.2,62.4z"/>
		<path d="M845.3,66.1c0-0.5,0.1-1,0.4-1.5c0.3-0.5,0.6-0.8,1.1-1.1c0.5-0.3,1-0.4,1.5-0.4c0.9,0,1.6,0.3,2.2,0.9
			c0.6,0.6,0.8,1.3,0.8,2.2c0,0.9-0.3,1.6-0.9,2.2s-1.3,0.9-2.1,0.9c-0.5,0-1-0.1-1.5-0.4c-0.5-0.2-0.9-0.6-1.1-1.1
			C845.4,67.3,845.3,66.7,845.3,66.1z M846.8,66.1c0,0.6,0.1,1,0.4,1.3c0.3,0.3,0.6,0.5,1,0.5c0.4,0,0.7-0.2,1-0.5s0.4-0.8,0.4-1.3
			c0-0.6-0.1-1-0.4-1.3s-0.6-0.5-1-0.5c-0.4,0-0.7,0.2-1,0.5C847,65.1,846.8,65.6,846.8,66.1z"/>
		<path d="M851.9,67.4l1.5-0.2c0.1,0.3,0.2,0.5,0.4,0.7s0.5,0.2,0.8,0.2c0.4,0,0.7-0.1,0.9-0.2c0.1-0.1,0.2-0.2,0.2-0.4
			c0-0.1,0-0.2-0.1-0.3c-0.1-0.1-0.2-0.1-0.5-0.2c-1.2-0.3-2-0.5-2.4-0.8c-0.5-0.3-0.7-0.8-0.7-1.3c0-0.5,0.2-0.9,0.6-1.3
			c0.4-0.3,1-0.5,1.9-0.5c0.8,0,1.4,0.1,1.8,0.4c0.4,0.3,0.7,0.6,0.8,1.2l-1.5,0.3c-0.1-0.2-0.2-0.4-0.4-0.5
			c-0.2-0.1-0.4-0.2-0.7-0.2c-0.4,0-0.7,0.1-0.9,0.2c-0.1,0.1-0.2,0.2-0.2,0.3c0,0.1,0.1,0.2,0.2,0.3c0.1,0.1,0.6,0.2,1.4,0.4
			s1.4,0.4,1.7,0.7c0.3,0.3,0.5,0.7,0.5,1.1c0,0.5-0.2,1-0.7,1.4s-1.1,0.6-2,0.6c-0.8,0-1.4-0.2-1.9-0.5S852.1,67.9,851.9,67.4z"/>
	</g>
	<g>
		<path d="M76.3,583.9l2.9,8.6l2.9-8.6h1.5L79.9,594h-1.4l-3.7-10.1H76.3z"/>
		<path d="M84.4,583.9h1.3v1.4h-1.3V583.9z M84.4,586.7h1.3v7.3h-1.3V586.7z"/>
		<path d="M88.1,586.7l2,6l2.1-6h1.4l-2.8,7.3h-1.3l-2.7-7.3H88.1z"/>
		<path d="M94.6,583.9h1.3v1.4h-1.3V583.9z M94.6,586.7h1.3v7.3h-1.3V586.7z"/>
		<path d="M102.3,586.9c0.5,0.2,0.9,0.6,1.1,0.9c0.2,0.4,0.4,0.8,0.5,1.3c0.1,0.3,0.1,0.9,0.1,1.6h-5.4c0,0.7,0.2,1.3,0.5,1.8
			c0.3,0.5,0.8,0.7,1.5,0.7c0.6,0,1.2-0.2,1.5-0.6c0.2-0.2,0.4-0.5,0.5-0.9h1.2c0,0.3-0.1,0.6-0.3,0.9c-0.2,0.3-0.4,0.6-0.6,0.8
			c-0.4,0.4-0.8,0.6-1.4,0.7c-0.3,0.1-0.6,0.1-1,0.1c-0.9,0-1.7-0.3-2.3-1c-0.6-0.7-1-1.6-1-2.8c0-1.2,0.3-2.1,1-2.9
			c0.6-0.7,1.5-1.1,2.5-1.1C101.3,586.5,101.8,586.6,102.3,586.9z M102.7,589.8c-0.1-0.5-0.2-1-0.3-1.3c-0.3-0.6-0.9-0.9-1.7-0.9
			c-0.6,0-1,0.2-1.4,0.6c-0.4,0.4-0.6,0.9-0.6,1.6H102.7z"/>
		<path d="M105.5,586.7h1.2v1c0.3-0.4,0.7-0.7,1.1-0.9c0.4-0.2,0.8-0.3,1.3-0.3c1,0,1.7,0.4,2.1,1.1c0.2,0.4,0.3,1,0.3,1.7v4.7h-1.3
			v-4.6c0-0.4-0.1-0.8-0.2-1.1c-0.2-0.5-0.6-0.7-1.2-0.7c-0.3,0-0.5,0-0.7,0.1c-0.3,0.1-0.6,0.3-0.9,0.6c-0.2,0.2-0.3,0.5-0.4,0.8
			c-0.1,0.3-0.1,0.6-0.1,1.1v3.8h-1.2V586.7z"/>
		<path d="M117.4,586.9c0.2,0.1,0.5,0.4,0.7,0.7v-3.7h1.2V594h-1.1v-1c-0.3,0.5-0.6,0.8-1,1c-0.4,0.2-0.8,0.3-1.4,0.3
			c-0.8,0-1.5-0.3-2.1-1c-0.6-0.7-0.9-1.6-0.9-2.7c0-1.1,0.3-2,0.8-2.8s1.3-1.2,2.3-1.2C116.5,586.5,117,586.7,117.4,586.9z
			 M114.6,592.4c0.3,0.5,0.9,0.8,1.6,0.8c0.6,0,1-0.2,1.4-0.7c0.4-0.5,0.6-1.2,0.6-2.1c0-0.9-0.2-1.6-0.6-2.1s-0.8-0.7-1.4-0.7
			c-0.6,0-1.1,0.2-1.5,0.7c-0.4,0.5-0.6,1.2-0.6,2.1C114.1,591.2,114.3,591.9,114.6,592.4z"/>
		<path d="M125,589.6c0.3,0,0.5-0.2,0.6-0.4c0.1-0.1,0.1-0.3,0.1-0.5c0-0.4-0.1-0.7-0.4-0.9c-0.3-0.2-0.7-0.3-1.3-0.3
			c-0.6,0-1.1,0.2-1.4,0.5c-0.2,0.2-0.2,0.5-0.3,0.9h-1.2c0-0.9,0.3-1.5,0.9-1.9s1.2-0.5,2-0.5c0.9,0,1.6,0.2,2.1,0.5
			c0.5,0.3,0.8,0.8,0.8,1.5v4.2c0,0.1,0,0.2,0.1,0.3c0.1,0.1,0.2,0.1,0.3,0.1c0.1,0,0.1,0,0.2,0c0.1,0,0.1,0,0.2,0v0.9
			c-0.2,0.1-0.3,0.1-0.4,0.1c-0.1,0-0.2,0-0.4,0c-0.4,0-0.7-0.1-0.9-0.5c-0.1-0.2-0.2-0.4-0.2-0.7c-0.3,0.3-0.6,0.6-1.1,0.9
			c-0.5,0.2-1,0.4-1.6,0.4c-0.7,0-1.2-0.2-1.7-0.6c-0.4-0.4-0.6-0.9-0.6-1.6c0-0.7,0.2-1.2,0.6-1.6s1-0.6,1.7-0.7L125,589.6z
			 M122.4,592.9c0.3,0.2,0.6,0.3,0.9,0.3c0.4,0,0.9-0.1,1.3-0.3c0.7-0.3,1-0.9,1-1.6v-1c-0.2,0.1-0.3,0.2-0.6,0.2
			c-0.2,0.1-0.5,0.1-0.7,0.1l-0.7,0.1c-0.4,0.1-0.8,0.2-1,0.3c-0.4,0.2-0.6,0.6-0.6,1C122.1,592.4,122.2,592.7,122.4,592.9z"/>
		<path d="M79.9,603.5h1.4c-0.2,0.5-0.6,1.5-1.2,3.2c-0.4,1.3-0.8,2.3-1.1,3.1c-0.7,1.9-1.2,3-1.5,3.4c-0.3,0.4-0.8,0.6-1.5,0.6
			c-0.2,0-0.3,0-0.4,0c-0.1,0-0.2,0-0.3-0.1v-1.1c0.2,0.1,0.4,0.1,0.5,0.1c0.1,0,0.2,0,0.3,0c0.2,0,0.4,0,0.5-0.1
			c0.1-0.1,0.2-0.2,0.3-0.3c0,0,0.1-0.2,0.2-0.6s0.2-0.6,0.3-0.8l-2.7-7.6h1.4l2,6L79.9,603.5z"/>
		<path d="M90.8,603.7c0.5,0.2,0.9,0.6,1.1,0.9c0.2,0.4,0.4,0.8,0.5,1.3c0.1,0.3,0.1,0.9,0.1,1.6h-5.4c0,0.7,0.2,1.3,0.5,1.8
			c0.3,0.5,0.8,0.7,1.5,0.7c0.6,0,1.2-0.2,1.5-0.6c0.2-0.2,0.4-0.5,0.5-0.9h1.2c0,0.3-0.1,0.6-0.3,0.9c-0.2,0.3-0.4,0.6-0.6,0.8
			c-0.4,0.4-0.8,0.6-1.4,0.7c-0.3,0.1-0.6,0.1-1,0.1c-0.9,0-1.7-0.3-2.3-1c-0.6-0.7-1-1.6-1-2.8c0-1.2,0.3-2.1,1-2.9
			c0.6-0.7,1.5-1.1,2.5-1.1C89.8,603.4,90.3,603.5,90.8,603.7z M91.3,606.6c-0.1-0.5-0.2-1-0.3-1.3c-0.3-0.6-0.9-0.9-1.7-0.9
			c-0.6,0-1,0.2-1.4,0.6c-0.4,0.4-0.6,0.9-0.6,1.6H91.3z"/>
		<path d="M94,603.5h1.2v1c0.3-0.4,0.7-0.7,1.1-0.9c0.4-0.2,0.8-0.3,1.3-0.3c1,0,1.7,0.4,2.1,1.1c0.2,0.4,0.3,1,0.3,1.7v4.7h-1.3
			v-4.6c0-0.4-0.1-0.8-0.2-1.1c-0.2-0.5-0.6-0.7-1.2-0.7c-0.3,0-0.5,0-0.7,0.1c-0.3,0.1-0.6,0.3-0.9,0.6c-0.2,0.2-0.3,0.5-0.4,0.8
			c-0.1,0.3-0.1,0.6-0.1,1.1v3.8H94V603.5z"/>
		<path d="M102.1,601.5h1.2v2h1.2v1h-1.2v4.8c0,0.3,0.1,0.4,0.3,0.5c0.1,0,0.3,0.1,0.5,0.1c0.1,0,0.1,0,0.2,0s0.1,0,0.2,0v1
			c-0.1,0-0.3,0.1-0.4,0.1c-0.2,0-0.3,0-0.5,0c-0.6,0-1-0.1-1.2-0.4c-0.2-0.3-0.3-0.7-0.3-1.1v-4.9h-1v-1h1V601.5z"/>
		<path d="M111.1,604.3c0.7,0.6,1,1.6,1,2.8c0,1.2-0.3,2.2-0.9,2.9c-0.6,0.8-1.5,1.2-2.7,1.2c-1,0-1.8-0.3-2.4-1
			c-0.6-0.7-0.9-1.6-0.9-2.8c0-1.2,0.3-2.2,0.9-2.9s1.5-1.1,2.5-1.1C109.7,603.3,110.5,603.6,111.1,604.3z M110.3,609.1
			c0.3-0.6,0.5-1.3,0.5-2.1c0-0.7-0.1-1.2-0.3-1.7c-0.3-0.7-0.9-1-1.8-1c-0.8,0-1.3,0.3-1.6,0.9c-0.3,0.6-0.5,1.3-0.5,2.1
			c0,0.8,0.2,1.4,0.5,2c0.3,0.5,0.9,0.8,1.6,0.8C109.5,610.1,110,609.8,110.3,609.1z"/>
		<path d="M113.6,603.5h1.2v1.3c0.1-0.2,0.3-0.5,0.7-0.9c0.4-0.4,0.8-0.5,1.3-0.5c0,0,0.1,0,0.1,0c0.1,0,0.1,0,0.3,0v1.3
			c-0.1,0-0.1,0-0.2,0c-0.1,0-0.1,0-0.2,0c-0.6,0-1.1,0.2-1.4,0.6c-0.3,0.4-0.5,0.9-0.5,1.4v4.2h-1.2V603.5z"/>
		<path d="M118.2,603.5h1.2v1c0.3-0.4,0.7-0.7,1.1-0.9c0.4-0.2,0.8-0.3,1.3-0.3c1,0,1.7,0.4,2.1,1.1c0.2,0.4,0.3,1,0.3,1.7v4.7H123
			v-4.6c0-0.4-0.1-0.8-0.2-1.1c-0.2-0.5-0.6-0.7-1.2-0.7c-0.3,0-0.5,0-0.7,0.1c-0.3,0.1-0.6,0.3-0.9,0.6c-0.2,0.2-0.3,0.5-0.4,0.8
			c-0.1,0.3-0.1,0.6-0.1,1.1v3.8h-1.2V603.5z"/>
		<path d="M131.4,604.3c0.7,0.6,1,1.6,1,2.8c0,1.2-0.3,2.2-0.9,2.9c-0.6,0.8-1.5,1.2-2.7,1.2c-1,0-1.8-0.3-2.4-1
			c-0.6-0.7-0.9-1.6-0.9-2.8c0-1.2,0.3-2.2,0.9-2.9s1.5-1.1,2.5-1.1C130,603.3,130.8,603.6,131.4,604.3z M130.6,609.1
			c0.3-0.6,0.5-1.3,0.5-2.1c0-0.7-0.1-1.2-0.3-1.7c-0.3-0.7-0.9-1-1.8-1c-0.8,0-1.3,0.3-1.6,0.9s-0.5,1.3-0.5,2.1
			c0,0.8,0.2,1.4,0.5,2s0.9,0.8,1.6,0.8C129.8,610.1,130.3,609.8,130.6,609.1z"/>
	</g>
	<g>
		<path d="M199.9,590.8c0,0.6,0.2,1,0.4,1.4c0.5,0.7,1.3,1,2.4,1c0.5,0,1-0.1,1.4-0.2c0.8-0.3,1.2-0.8,1.2-1.5
			c0-0.5-0.2-0.9-0.5-1.2c-0.3-0.2-0.9-0.4-1.6-0.6l-1.4-0.3c-0.9-0.2-1.5-0.4-1.9-0.7c-0.6-0.4-1-1-1-1.9c0-0.9,0.3-1.6,0.9-2.2
			c0.6-0.6,1.5-0.9,2.7-0.9c1.1,0,2,0.3,2.7,0.8c0.7,0.5,1.1,1.3,1.1,2.4h-1.3c-0.1-0.5-0.2-1-0.4-1.2c-0.4-0.5-1.1-0.8-2.1-0.8
			c-0.8,0-1.4,0.2-1.7,0.5s-0.5,0.7-0.5,1.2c0,0.5,0.2,0.9,0.6,1.1c0.3,0.1,0.9,0.3,1.8,0.5l1.4,0.3c0.7,0.2,1.2,0.4,1.6,0.6
			c0.6,0.5,1,1.2,1,2c0,1.1-0.4,1.9-1.2,2.4c-0.8,0.5-1.8,0.7-2.8,0.7c-1.3,0-2.2-0.3-2.9-1c-0.7-0.6-1.1-1.5-1-2.6H199.9z"/>
		<path d="M212.2,589.6c0.3,0,0.5-0.2,0.6-0.4c0.1-0.1,0.1-0.3,0.1-0.5c0-0.4-0.1-0.7-0.4-0.9c-0.3-0.2-0.7-0.3-1.3-0.3
			c-0.6,0-1.1,0.2-1.4,0.5c-0.2,0.2-0.2,0.5-0.3,0.9h-1.2c0-0.9,0.3-1.5,0.9-1.9s1.2-0.5,2-0.5c0.9,0,1.6,0.2,2.1,0.5
			c0.5,0.3,0.8,0.8,0.8,1.5v4.2c0,0.1,0,0.2,0.1,0.3c0.1,0.1,0.2,0.1,0.3,0.1c0.1,0,0.1,0,0.2,0c0.1,0,0.1,0,0.2,0v0.9
			c-0.2,0.1-0.3,0.1-0.4,0.1c-0.1,0-0.2,0-0.4,0c-0.4,0-0.7-0.1-0.9-0.5c-0.1-0.2-0.2-0.4-0.2-0.7c-0.3,0.3-0.6,0.6-1.1,0.9
			c-0.5,0.2-1,0.4-1.6,0.4c-0.7,0-1.2-0.2-1.7-0.6c-0.4-0.4-0.6-0.9-0.6-1.6c0-0.7,0.2-1.2,0.6-1.6c0.4-0.4,1-0.6,1.7-0.7
			L212.2,589.6z M209.6,592.9c0.3,0.2,0.6,0.3,0.9,0.3c0.4,0,0.9-0.1,1.3-0.3c0.7-0.3,1-0.9,1-1.6v-1c-0.2,0.1-0.3,0.2-0.6,0.2
			s-0.5,0.1-0.7,0.1l-0.7,0.1c-0.4,0.1-0.8,0.2-1,0.3c-0.4,0.2-0.6,0.6-0.6,1C209.2,592.4,209.3,592.7,209.6,592.9z"/>
		<path d="M216.1,583.9h1.2V594h-1.2V583.9z"/>
		<path d="M220.4,586.7v4.9c0,0.4,0.1,0.7,0.2,0.9c0.2,0.4,0.6,0.7,1.2,0.7c0.9,0,1.4-0.4,1.8-1.2c0.2-0.4,0.3-1,0.3-1.7v-3.6h1.2
			v7.3h-1.2l0-1.1c-0.2,0.3-0.4,0.5-0.6,0.7c-0.5,0.4-1,0.6-1.7,0.6c-1,0-1.8-0.3-2.1-1c-0.2-0.4-0.3-0.9-0.3-1.5v-5H220.4z"/>
		<path d="M231,586.9c0.2,0.1,0.5,0.4,0.7,0.7v-3.7h1.2V594h-1.1v-1c-0.3,0.5-0.6,0.8-1,1s-0.8,0.3-1.4,0.3c-0.8,0-1.5-0.3-2.1-1
			c-0.6-0.7-0.9-1.6-0.9-2.7c0-1.1,0.3-2,0.8-2.8s1.3-1.2,2.3-1.2C230.2,586.5,230.6,586.7,231,586.9z M228.3,592.4
			c0.3,0.5,0.9,0.8,1.6,0.8c0.6,0,1-0.2,1.4-0.7c0.4-0.5,0.6-1.2,0.6-2.1c0-0.9-0.2-1.6-0.6-2.1s-0.8-0.7-1.4-0.7
			c-0.6,0-1.1,0.2-1.5,0.7c-0.4,0.5-0.6,1.2-0.6,2.1C227.8,591.2,227.9,591.9,228.3,592.4z"/>
		<path d="M243.3,586.7h1.4c-0.2,0.5-0.6,1.5-1.2,3.2c-0.4,1.3-0.8,2.3-1.1,3.1c-0.7,1.9-1.2,3-1.5,3.4c-0.3,0.4-0.8,0.6-1.5,0.6
			c-0.2,0-0.3,0-0.4,0c-0.1,0-0.2,0-0.3-0.1v-1.1c0.2,0.1,0.4,0.1,0.5,0.1c0.1,0,0.2,0,0.3,0c0.2,0,0.4,0,0.5-0.1
			c0.1-0.1,0.2-0.2,0.3-0.3c0,0,0.1-0.2,0.2-0.6c0.1-0.3,0.2-0.6,0.3-0.8l-2.7-7.6h1.4l2,6L243.3,586.7z"/>
		<path d="M198.9,603.5h1.2v1c0.3-0.4,0.6-0.6,0.8-0.8c0.4-0.3,0.9-0.4,1.4-0.4c0.6,0,1.1,0.1,1.4,0.4c0.2,0.2,0.4,0.4,0.5,0.7
			c0.3-0.4,0.6-0.7,1-0.9c0.4-0.2,0.8-0.3,1.2-0.3c1,0,1.7,0.4,2,1.1c0.2,0.4,0.3,0.9,0.3,1.5v4.9h-1.3v-5.1c0-0.5-0.1-0.8-0.4-1
			c-0.2-0.2-0.5-0.3-0.9-0.3c-0.5,0-0.9,0.2-1.3,0.5c-0.3,0.3-0.5,0.9-0.5,1.6v4.3h-1.3v-4.8c0-0.5-0.1-0.9-0.2-1.1
			c-0.2-0.3-0.5-0.5-1-0.5c-0.5,0-0.9,0.2-1.3,0.5c-0.4,0.4-0.6,1-0.6,2v3.9h-1.2V603.5z"/>
		<path d="M215.1,603.7c0.5,0.2,0.9,0.6,1.1,0.9c0.2,0.4,0.4,0.8,0.5,1.3c0.1,0.3,0.1,0.9,0.1,1.6h-5.4c0,0.7,0.2,1.3,0.5,1.8
			c0.3,0.5,0.8,0.7,1.5,0.7c0.6,0,1.2-0.2,1.5-0.6c0.2-0.2,0.4-0.5,0.5-0.9h1.2c0,0.3-0.1,0.6-0.3,0.9c-0.2,0.3-0.4,0.6-0.6,0.8
			c-0.4,0.4-0.8,0.6-1.4,0.7c-0.3,0.1-0.6,0.1-1,0.1c-0.9,0-1.7-0.3-2.3-1c-0.6-0.7-1-1.6-1-2.8c0-1.2,0.3-2.1,1-2.9
			c0.6-0.7,1.5-1.1,2.5-1.1C214.1,603.4,214.7,603.5,215.1,603.7z M215.6,606.6c-0.1-0.5-0.2-1-0.3-1.3c-0.3-0.6-0.9-0.9-1.7-0.9
			c-0.6,0-1,0.2-1.4,0.6c-0.4,0.4-0.6,0.9-0.6,1.6H215.6z"/>
		<path d="M222.4,603.8c0.2,0.1,0.5,0.4,0.7,0.7v-3.7h1.2v10.1h-1.1v-1c-0.3,0.5-0.6,0.8-1,1s-0.8,0.3-1.4,0.3c-0.8,0-1.5-0.3-2.1-1
			c-0.6-0.7-0.9-1.6-0.9-2.7c0-1.1,0.3-2,0.8-2.8s1.3-1.2,2.3-1.2C221.6,603.4,222.1,603.5,222.4,603.8z M219.7,609.3
			c0.3,0.5,0.9,0.8,1.6,0.8c0.6,0,1-0.2,1.4-0.7c0.4-0.5,0.6-1.2,0.6-2.1c0-0.9-0.2-1.6-0.6-2.1s-0.8-0.7-1.4-0.7
			c-0.6,0-1.1,0.2-1.5,0.7c-0.4,0.5-0.6,1.2-0.6,2.1C219.2,608.1,219.3,608.7,219.7,609.3z"/>
		<path d="M226.2,600.8h1.3v1.4h-1.3V600.8z M226.2,603.6h1.3v7.3h-1.3V603.6z"/>
		<path d="M234.7,604.3c0.7,0.6,1,1.6,1,2.8c0,1.2-0.3,2.2-0.9,2.9c-0.6,0.8-1.5,1.2-2.7,1.2c-1,0-1.8-0.3-2.4-1
			c-0.6-0.7-0.9-1.6-0.9-2.8c0-1.2,0.3-2.2,0.9-2.9s1.5-1.1,2.5-1.1C233.2,603.3,234,603.6,234.7,604.3z M233.9,609.1
			c0.3-0.6,0.5-1.3,0.5-2.1c0-0.7-0.1-1.2-0.3-1.7c-0.3-0.7-0.9-1-1.8-1c-0.8,0-1.3,0.3-1.6,0.9c-0.3,0.6-0.5,1.3-0.5,2.1
			c0,0.8,0.2,1.4,0.5,2c0.3,0.5,0.9,0.8,1.6,0.8C233,610.1,233.6,609.8,233.9,609.1z"/>
		<path d="M241.1,606.4c0.3,0,0.5-0.2,0.6-0.4c0.1-0.1,0.1-0.3,0.1-0.5c0-0.4-0.1-0.7-0.4-0.9c-0.3-0.2-0.7-0.3-1.3-0.3
			c-0.6,0-1.1,0.2-1.4,0.5c-0.2,0.2-0.2,0.5-0.3,0.9h-1.2c0-0.9,0.3-1.5,0.9-1.9s1.2-0.5,2-0.5c0.9,0,1.6,0.2,2.1,0.5
			c0.5,0.3,0.8,0.8,0.8,1.5v4.2c0,0.1,0,0.2,0.1,0.3c0.1,0.1,0.2,0.1,0.3,0.1c0.1,0,0.1,0,0.2,0c0.1,0,0.1,0,0.2,0v0.9
			c-0.2,0.1-0.3,0.1-0.4,0.1c-0.1,0-0.2,0-0.4,0c-0.4,0-0.7-0.1-0.9-0.5c-0.1-0.2-0.2-0.4-0.2-0.7c-0.3,0.3-0.6,0.6-1.1,0.9
			c-0.5,0.2-1,0.4-1.6,0.4c-0.7,0-1.2-0.2-1.7-0.6c-0.4-0.4-0.6-0.9-0.6-1.6c0-0.7,0.2-1.2,0.6-1.6c0.4-0.4,1-0.6,1.7-0.7
			L241.1,606.4z M238.5,609.8c0.3,0.2,0.6,0.3,0.9,0.3c0.4,0,0.9-0.1,1.3-0.3c0.7-0.3,1-0.9,1-1.6v-1c-0.2,0.1-0.3,0.2-0.6,0.2
			c-0.2,0.1-0.5,0.1-0.7,0.1l-0.7,0.1c-0.4,0.1-0.8,0.2-1,0.3c-0.4,0.2-0.6,0.6-0.6,1C238.1,609.3,238.2,609.6,238.5,609.8z"/>
		<path d="M244.9,603.5h1.2v1c0.3-0.4,0.6-0.6,0.8-0.8c0.4-0.3,0.9-0.4,1.4-0.4c0.6,0,1.1,0.1,1.4,0.4c0.2,0.2,0.4,0.4,0.5,0.7
			c0.3-0.4,0.6-0.7,1-0.9c0.4-0.2,0.8-0.3,1.2-0.3c1,0,1.7,0.4,2,1.1c0.2,0.4,0.3,0.9,0.3,1.5v4.9h-1.3v-5.1c0-0.5-0.1-0.8-0.4-1
			c-0.2-0.2-0.5-0.3-0.9-0.3c-0.5,0-0.9,0.2-1.3,0.5c-0.3,0.3-0.5,0.9-0.5,1.6v4.3h-1.3v-4.8c0-0.5-0.1-0.9-0.2-1.1
			c-0.2-0.3-0.5-0.5-1-0.5c-0.5,0-0.9,0.2-1.3,0.5c-0.4,0.4-0.6,1-0.6,2v3.9h-1.2V603.5z"/>
		<path d="M256.5,600.8h1.2v3.7c0.3-0.4,0.6-0.6,1-0.8c0.4-0.2,0.8-0.3,1.2-0.3c0.9,0,1.7,0.3,2.2,0.9c0.6,0.6,0.9,1.6,0.9,2.8
			c0,1.2-0.3,2.1-0.8,2.9c-0.6,0.8-1.3,1.2-2.3,1.2c-0.6,0-1-0.1-1.4-0.4c-0.2-0.2-0.5-0.4-0.7-0.8v0.9h-1.1V600.8z M261.2,609.2
			c0.3-0.5,0.5-1.2,0.5-2.1c0-0.8-0.2-1.4-0.5-1.9c-0.3-0.5-0.8-0.8-1.5-0.8c-0.6,0-1.1,0.2-1.5,0.6c-0.4,0.4-0.6,1.1-0.6,2.1
			c0,0.7,0.1,1.3,0.3,1.7c0.3,0.8,0.9,1.2,1.8,1.2C260.4,610,260.9,609.7,261.2,609.2z"/>
		<path d="M264.4,600.8h1.3v1.4h-1.3V600.8z M264.4,603.6h1.3v7.3h-1.3V603.6z"/>
		<path d="M272.1,603.7c0.5,0.2,0.9,0.6,1.1,0.9c0.2,0.4,0.4,0.8,0.5,1.3c0.1,0.3,0.1,0.9,0.1,1.6h-5.4c0,0.7,0.2,1.3,0.5,1.8
			c0.3,0.5,0.8,0.7,1.5,0.7c0.6,0,1.2-0.2,1.5-0.6c0.2-0.2,0.4-0.5,0.5-0.9h1.2c0,0.3-0.1,0.6-0.3,0.9c-0.2,0.3-0.4,0.6-0.6,0.8
			c-0.4,0.4-0.8,0.6-1.4,0.7c-0.3,0.1-0.6,0.1-1,0.1c-0.9,0-1.7-0.3-2.3-1c-0.6-0.7-1-1.6-1-2.8c0-1.2,0.3-2.1,1-2.9
			c0.6-0.7,1.5-1.1,2.5-1.1C271.1,603.4,271.6,603.5,272.1,603.7z M272.6,606.6c-0.1-0.5-0.2-1-0.3-1.3c-0.3-0.6-0.9-0.9-1.7-0.9
			c-0.6,0-1,0.2-1.4,0.6c-0.4,0.4-0.6,0.9-0.6,1.6H272.6z"/>
		<path d="M275.4,603.5h1.2v1c0.3-0.4,0.7-0.7,1.1-0.9c0.4-0.2,0.8-0.3,1.3-0.3c1,0,1.7,0.4,2.1,1.1c0.2,0.4,0.3,1,0.3,1.7v4.7h-1.3
			v-4.6c0-0.4-0.1-0.8-0.2-1.1c-0.2-0.5-0.6-0.7-1.2-0.7c-0.3,0-0.5,0-0.7,0.1c-0.3,0.1-0.6,0.3-0.9,0.6c-0.2,0.2-0.3,0.5-0.4,0.8
			c-0.1,0.3-0.1,0.6-0.1,1.1v3.8h-1.2V603.5z"/>
		<path d="M283.4,601.5h1.2v2h1.2v1h-1.2v4.8c0,0.3,0.1,0.4,0.3,0.5c0.1,0,0.3,0.1,0.5,0.1c0.1,0,0.1,0,0.2,0s0.1,0,0.2,0v1
			c-0.1,0-0.3,0.1-0.4,0.1c-0.2,0-0.3,0-0.5,0c-0.6,0-1-0.1-1.2-0.4s-0.3-0.7-0.3-1.1v-4.9h-1v-1h1V601.5z"/>
		<path d="M291.6,603.7c0.5,0.2,0.9,0.6,1.1,0.9c0.2,0.4,0.4,0.8,0.5,1.3c0.1,0.3,0.1,0.9,0.1,1.6H288c0,0.7,0.2,1.3,0.5,1.8
			c0.3,0.5,0.8,0.7,1.5,0.7c0.6,0,1.2-0.2,1.5-0.6c0.2-0.2,0.4-0.5,0.5-0.9h1.2c0,0.3-0.1,0.6-0.3,0.9c-0.2,0.3-0.4,0.6-0.6,0.8
			c-0.4,0.4-0.8,0.6-1.4,0.7c-0.3,0.1-0.6,0.1-1,0.1c-0.9,0-1.7-0.3-2.3-1c-0.6-0.7-1-1.6-1-2.8c0-1.2,0.3-2.1,1-2.9
			c0.6-0.7,1.5-1.1,2.5-1.1C290.6,603.4,291.2,603.5,291.6,603.7z M292.1,606.6c-0.1-0.5-0.2-1-0.3-1.3c-0.3-0.6-0.9-0.9-1.7-0.9
			c-0.6,0-1,0.2-1.4,0.6c-0.4,0.4-0.6,0.9-0.6,1.6H292.1z"/>
	</g>
	<g>
		<g>
			<path d="M329.8,584.7c0.7,0.7,1.1,1.4,1.2,2.3h-1.3c-0.2-0.6-0.5-1.2-0.9-1.5c-0.5-0.4-1.1-0.6-1.9-0.6c-1,0-1.8,0.3-2.4,1
				c-0.6,0.7-0.9,1.8-0.9,3.2c0,1.2,0.3,2.1,0.8,2.9c0.6,0.7,1.4,1.1,2.5,1.1c1,0,1.8-0.4,2.3-1.2c0.3-0.4,0.5-0.9,0.6-1.6h1.3
				c-0.1,1.1-0.5,2-1.2,2.7c-0.8,0.9-1.9,1.3-3.2,1.3c-1.2,0-2.2-0.4-2.9-1.1c-1-0.9-1.6-2.4-1.6-4.3c0-1.5,0.4-2.7,1.2-3.7
				c0.9-1,2-1.6,3.5-1.6C328.1,583.7,329.1,584,329.8,584.7z"/>
			<path d="M337.9,587.4c0.7,0.6,1,1.6,1,2.8c0,1.2-0.3,2.2-0.9,2.9c-0.6,0.8-1.5,1.2-2.7,1.2c-1,0-1.8-0.3-2.4-1
				c-0.6-0.7-0.9-1.6-0.9-2.8c0-1.2,0.3-2.2,0.9-2.9c0.6-0.7,1.5-1.1,2.5-1.1C336.5,586.5,337.3,586.8,337.9,587.4z M337.2,592.3
				c0.3-0.6,0.5-1.3,0.5-2.1c0-0.7-0.1-1.2-0.3-1.7c-0.3-0.7-0.9-1-1.8-1c-0.8,0-1.3,0.3-1.6,0.9c-0.3,0.6-0.5,1.3-0.5,2.1
				c0,0.8,0.2,1.4,0.5,2c0.3,0.5,0.9,0.8,1.6,0.8C336.3,593.2,336.9,592.9,337.2,592.3z"/>
			<path d="M340.4,586.7h1.2v1c0.3-0.4,0.7-0.7,1.1-0.9c0.4-0.2,0.8-0.3,1.3-0.3c1,0,1.7,0.4,2.1,1.1c0.2,0.4,0.3,1,0.3,1.7v4.7
				h-1.3v-4.6c0-0.4-0.1-0.8-0.2-1.1c-0.2-0.5-0.6-0.7-1.2-0.7c-0.3,0-0.5,0-0.7,0.1c-0.3,0.1-0.6,0.3-0.9,0.6
				c-0.2,0.2-0.3,0.5-0.4,0.8c-0.1,0.3-0.1,0.6-0.1,1.1v3.8h-1.2V586.7z"/>
			<path d="M352.8,586.9c0.5,0.2,0.9,0.6,1.1,0.9c0.2,0.4,0.4,0.8,0.5,1.3c0.1,0.3,0.1,0.9,0.1,1.6h-5.4c0,0.7,0.2,1.3,0.5,1.8
				c0.3,0.5,0.8,0.7,1.5,0.7c0.6,0,1.2-0.2,1.5-0.6c0.2-0.2,0.4-0.5,0.5-0.9h1.2c0,0.3-0.1,0.6-0.3,0.9c-0.2,0.3-0.4,0.6-0.6,0.8
				c-0.4,0.4-0.8,0.6-1.4,0.7c-0.3,0.1-0.6,0.1-1,0.1c-0.9,0-1.7-0.3-2.3-1c-0.6-0.7-1-1.6-1-2.8c0-1.2,0.3-2.1,1-2.9
				c0.6-0.7,1.5-1.1,2.5-1.1C351.8,586.5,352.3,586.6,352.8,586.9z M353.2,589.8c-0.1-0.5-0.2-1-0.3-1.3c-0.3-0.6-0.9-0.9-1.7-0.9
				c-0.6,0-1,0.2-1.4,0.6c-0.4,0.4-0.6,0.9-0.6,1.6H353.2z"/>
			<path d="M360.9,587.1c0.5,0.4,0.8,1.1,0.9,2.1h-1.2c-0.1-0.5-0.2-0.8-0.5-1.1s-0.7-0.4-1.3-0.4c-0.8,0-1.3,0.4-1.7,1.2
				c-0.2,0.5-0.3,1.1-0.3,1.8c0,0.7,0.2,1.4,0.5,1.9c0.3,0.5,0.8,0.8,1.5,0.8c0.5,0,0.9-0.2,1.2-0.5c0.3-0.3,0.5-0.7,0.6-1.3h1.2
				c-0.1,1-0.5,1.7-1,2.1s-1.3,0.7-2.1,0.7c-1,0-1.7-0.3-2.3-1.1c-0.6-0.7-0.9-1.6-0.9-2.6c0-1.3,0.3-2.3,0.9-3
				c0.6-0.7,1.4-1.1,2.4-1.1C359.7,586.5,360.3,586.7,360.9,587.1z"/>
			<path d="M363.3,584.6h1.2v2h1.2v1h-1.2v4.8c0,0.3,0.1,0.4,0.3,0.5c0.1,0,0.3,0.1,0.5,0.1c0.1,0,0.1,0,0.2,0s0.1,0,0.2,0v1
				c-0.1,0-0.3,0.1-0.4,0.1c-0.2,0-0.3,0-0.5,0c-0.6,0-1-0.1-1.2-0.4s-0.3-0.7-0.3-1.1v-4.9h-1v-1h1V584.6z"/>
			<path d="M366.9,583.9h1.3v1.4h-1.3V583.9z M366.9,586.7h1.3v7.3h-1.3V586.7z"/>
			<path d="M370.6,586.7l2,6l2.1-6h1.4l-2.8,7.3h-1.3l-2.7-7.3H370.6z"/>
			<path d="M377.1,583.9h1.3v1.4h-1.3V583.9z M377.1,586.7h1.3v7.3h-1.3V586.7z"/>
			<path d="M384.2,586.9c0.2,0.1,0.5,0.4,0.7,0.7v-3.7h1.2V594h-1.1v-1c-0.3,0.5-0.6,0.8-1,1s-0.8,0.3-1.4,0.3c-0.8,0-1.5-0.3-2.1-1
				c-0.6-0.7-0.9-1.6-0.9-2.7c0-1.1,0.3-2,0.8-2.8c0.5-0.8,1.3-1.2,2.3-1.2C383.4,586.5,383.9,586.7,384.2,586.9z M381.5,592.4
				c0.3,0.5,0.9,0.8,1.6,0.8c0.6,0,1-0.2,1.4-0.7c0.4-0.5,0.6-1.2,0.6-2.1c0-0.9-0.2-1.6-0.6-2.1c-0.4-0.4-0.8-0.7-1.4-0.7
				c-0.6,0-1.1,0.2-1.5,0.7c-0.4,0.5-0.6,1.2-0.6,2.1C381,591.2,381.1,591.9,381.5,592.4z"/>
			<path d="M391.9,589.6c0.3,0,0.5-0.2,0.6-0.4c0.1-0.1,0.1-0.3,0.1-0.5c0-0.4-0.1-0.7-0.4-0.9c-0.3-0.2-0.7-0.3-1.3-0.3
				c-0.6,0-1.1,0.2-1.4,0.5c-0.2,0.2-0.2,0.5-0.3,0.9H388c0-0.9,0.3-1.5,0.9-1.9s1.2-0.5,2-0.5c0.9,0,1.6,0.2,2.1,0.5
				c0.5,0.3,0.8,0.8,0.8,1.5v4.2c0,0.1,0,0.2,0.1,0.3c0.1,0.1,0.2,0.1,0.3,0.1c0.1,0,0.1,0,0.2,0c0.1,0,0.1,0,0.2,0v0.9
				c-0.2,0.1-0.3,0.1-0.4,0.1c-0.1,0-0.2,0-0.4,0c-0.4,0-0.7-0.1-0.9-0.5c-0.1-0.2-0.2-0.4-0.2-0.7c-0.3,0.3-0.6,0.6-1.1,0.9
				c-0.5,0.2-1,0.4-1.6,0.4c-0.7,0-1.2-0.2-1.7-0.6c-0.4-0.4-0.6-0.9-0.6-1.6c0-0.7,0.2-1.2,0.6-1.6c0.4-0.4,1-0.6,1.7-0.7
				L391.9,589.6z M389.3,592.9c0.3,0.2,0.6,0.3,0.9,0.3c0.4,0,0.9-0.1,1.3-0.3c0.7-0.3,1-0.9,1-1.6v-1c-0.2,0.1-0.3,0.2-0.6,0.2
				c-0.2,0.1-0.5,0.1-0.7,0.1l-0.7,0.1c-0.4,0.1-0.8,0.2-1,0.3c-0.4,0.2-0.6,0.6-0.6,1C388.9,592.4,389.1,592.7,389.3,592.9z"/>
			<path d="M399.9,586.9c0.2,0.1,0.5,0.4,0.7,0.7v-3.7h1.2V594h-1.1v-1c-0.3,0.5-0.6,0.8-1,1s-0.8,0.3-1.4,0.3c-0.8,0-1.5-0.3-2.1-1
				c-0.6-0.7-0.9-1.6-0.9-2.7c0-1.1,0.3-2,0.8-2.8s1.3-1.2,2.3-1.2C399,586.5,399.5,586.7,399.9,586.9z M397.1,592.4
				c0.3,0.5,0.9,0.8,1.6,0.8c0.6,0,1-0.2,1.4-0.7c0.4-0.5,0.6-1.2,0.6-2.1c0-0.9-0.2-1.6-0.6-2.1c-0.4-0.4-0.8-0.7-1.4-0.7
				c-0.6,0-1.1,0.2-1.5,0.7c-0.4,0.5-0.6,1.2-0.6,2.1C396.6,591.2,396.8,591.9,397.1,592.4z"/>
			<path d="M327,603.5h1.4c-0.2,0.5-0.6,1.5-1.2,3.2c-0.4,1.3-0.8,2.3-1.1,3.1c-0.7,1.9-1.2,3-1.5,3.4c-0.3,0.4-0.8,0.6-1.5,0.6
				c-0.2,0-0.3,0-0.4,0c-0.1,0-0.2,0-0.3-0.1v-1.1c0.2,0.1,0.4,0.1,0.5,0.1c0.1,0,0.2,0,0.3,0c0.2,0,0.4,0,0.5-0.1
				c0.1-0.1,0.2-0.2,0.3-0.3c0,0,0.1-0.2,0.2-0.6s0.2-0.6,0.3-0.8l-2.7-7.6h1.4l2,6L327,603.5z"/>
			<path d="M333.4,603.5h1.2v1c0.3-0.4,0.6-0.6,0.8-0.8c0.4-0.3,0.9-0.4,1.4-0.4c0.6,0,1.1,0.1,1.4,0.4c0.2,0.2,0.4,0.4,0.5,0.7
				c0.3-0.4,0.6-0.7,1-0.9c0.4-0.2,0.8-0.3,1.2-0.3c1,0,1.7,0.4,2,1.1c0.2,0.4,0.3,0.9,0.3,1.5v4.9H342v-5.1c0-0.5-0.1-0.8-0.4-1
				c-0.2-0.2-0.5-0.3-0.9-0.3c-0.5,0-0.9,0.2-1.3,0.5c-0.3,0.3-0.5,0.9-0.5,1.6v4.3h-1.3v-4.8c0-0.5-0.1-0.9-0.2-1.1
				c-0.2-0.3-0.5-0.5-1-0.5c-0.5,0-0.9,0.2-1.3,0.5c-0.4,0.4-0.6,1-0.6,2v3.9h-1.2V603.5z"/>
			<path d="M350.4,604.3c0.7,0.6,1,1.6,1,2.8c0,1.2-0.3,2.2-0.9,2.9c-0.6,0.8-1.5,1.2-2.7,1.2c-1,0-1.8-0.3-2.4-1
				c-0.6-0.7-0.9-1.6-0.9-2.8c0-1.2,0.3-2.2,0.9-2.9c0.6-0.7,1.5-1.1,2.5-1.1C349,603.3,349.8,603.6,350.4,604.3z M349.7,609.1
				c0.3-0.6,0.5-1.3,0.5-2.1c0-0.7-0.1-1.2-0.3-1.7c-0.3-0.7-0.9-1-1.8-1c-0.8,0-1.3,0.3-1.6,0.9c-0.3,0.6-0.5,1.3-0.5,2.1
				c0,0.8,0.2,1.4,0.5,2c0.3,0.5,0.9,0.8,1.6,0.8C348.8,610.1,349.3,609.8,349.7,609.1z"/>
			<path d="M353.5,603.5l2,6l2.1-6h1.4l-2.8,7.3h-1.3l-2.7-7.3H353.5z"/>
			<path d="M359.9,600.8h1.3v1.4h-1.3V600.8z M359.9,603.6h1.3v7.3h-1.3V603.6z"/>
			<path d="M363,600.8h1.2v10.1H363V600.8z"/>
			<path d="M366.1,600.8h1.3v1.4h-1.3V600.8z M366.1,603.6h1.3v7.3h-1.3V603.6z"/>
			<path d="M373.3,603.8c0.2,0.1,0.5,0.4,0.7,0.7v-3.7h1.2v10.1h-1.1v-1c-0.3,0.5-0.6,0.8-1,1s-0.8,0.3-1.4,0.3
				c-0.8,0-1.5-0.3-2.1-1c-0.6-0.7-0.9-1.6-0.9-2.7c0-1.1,0.3-2,0.8-2.8c0.5-0.8,1.3-1.2,2.3-1.2
				C372.4,603.4,372.9,603.5,373.3,603.8z M370.5,609.3c0.3,0.5,0.9,0.8,1.6,0.8c0.6,0,1-0.2,1.4-0.7c0.4-0.5,0.6-1.2,0.6-2.1
				c0-0.9-0.2-1.6-0.6-2.1c-0.4-0.4-0.8-0.7-1.4-0.7c-0.6,0-1.1,0.2-1.5,0.7c-0.4,0.5-0.6,1.2-0.6,2.1
				C370,608.1,370.2,608.7,370.5,609.3z"/>
			<path d="M381,606.4c0.3,0,0.5-0.2,0.6-0.4c0.1-0.1,0.1-0.3,0.1-0.5c0-0.4-0.1-0.7-0.4-0.9c-0.3-0.2-0.7-0.3-1.3-0.3
				c-0.6,0-1.1,0.2-1.4,0.5c-0.2,0.2-0.2,0.5-0.3,0.9h-1.2c0-0.9,0.3-1.5,0.9-1.9c0.6-0.4,1.2-0.5,2-0.5c0.9,0,1.6,0.2,2.1,0.5
				c0.5,0.3,0.8,0.8,0.8,1.5v4.2c0,0.1,0,0.2,0.1,0.3c0.1,0.1,0.2,0.1,0.3,0.1c0.1,0,0.1,0,0.2,0c0.1,0,0.1,0,0.2,0v0.9
				c-0.2,0.1-0.3,0.1-0.4,0.1c-0.1,0-0.2,0-0.4,0c-0.4,0-0.7-0.1-0.9-0.5c-0.1-0.2-0.2-0.4-0.2-0.7c-0.3,0.3-0.6,0.6-1.1,0.9
				c-0.5,0.2-1,0.4-1.6,0.4c-0.7,0-1.2-0.2-1.7-0.6c-0.4-0.4-0.6-0.9-0.6-1.6c0-0.7,0.2-1.2,0.6-1.6s1-0.6,1.7-0.7L381,606.4z
				 M378.4,609.8c0.3,0.2,0.6,0.3,0.9,0.3c0.4,0,0.9-0.1,1.3-0.3c0.7-0.3,1-0.9,1-1.6v-1c-0.2,0.1-0.3,0.2-0.6,0.2
				c-0.2,0.1-0.5,0.1-0.7,0.1l-0.7,0.1c-0.4,0.1-0.8,0.2-1,0.3c-0.4,0.2-0.6,0.6-0.6,1C378,609.3,378.1,609.6,378.4,609.8z"/>
			<path d="M388.9,603.8c0.2,0.1,0.5,0.4,0.7,0.7v-3.7h1.2v10.1h-1.1v-1c-0.3,0.5-0.6,0.8-1,1c-0.4,0.2-0.8,0.3-1.4,0.3
				c-0.8,0-1.5-0.3-2.1-1c-0.6-0.7-0.9-1.6-0.9-2.7c0-1.1,0.3-2,0.8-2.8c0.5-0.8,1.3-1.2,2.3-1.2
				C388.1,603.4,388.5,603.5,388.9,603.8z M386.1,609.3c0.3,0.5,0.9,0.8,1.6,0.8c0.6,0,1-0.2,1.4-0.7c0.4-0.5,0.6-1.2,0.6-2.1
				c0-0.9-0.2-1.6-0.6-2.1c-0.4-0.4-0.8-0.7-1.4-0.7c-0.6,0-1.1,0.2-1.5,0.7c-0.4,0.5-0.6,1.2-0.6,2.1
				C385.6,608.1,385.8,608.7,386.1,609.3z"/>
		</g>
	</g>
	<g>
		<g>
			<path d="M453.4,584.7c0.7,0.7,1.1,1.4,1.2,2.3h-1.3c-0.2-0.6-0.5-1.2-0.9-1.5c-0.5-0.4-1.1-0.6-1.9-0.6c-1,0-1.8,0.3-2.4,1
				c-0.6,0.7-0.9,1.8-0.9,3.2c0,1.2,0.3,2.1,0.8,2.9c0.6,0.7,1.4,1.1,2.5,1.1c1,0,1.8-0.4,2.3-1.2c0.3-0.4,0.5-0.9,0.6-1.6h1.3
				c-0.1,1.1-0.5,2-1.2,2.7c-0.8,0.9-1.9,1.3-3.2,1.3c-1.2,0-2.2-0.4-2.9-1.1c-1-0.9-1.6-2.4-1.6-4.3c0-1.5,0.4-2.7,1.2-3.7
				c0.9-1,2-1.6,3.5-1.6C451.7,583.7,452.7,584,453.4,584.7z"/>
			<path d="M461.5,587.4c0.7,0.6,1,1.6,1,2.8c0,1.2-0.3,2.2-0.9,2.9c-0.6,0.8-1.5,1.2-2.7,1.2c-1,0-1.8-0.3-2.4-1
				c-0.6-0.7-0.9-1.6-0.9-2.8c0-1.2,0.3-2.2,0.9-2.9c0.6-0.7,1.5-1.1,2.5-1.1C460,586.5,460.8,586.8,461.5,587.4z M460.7,592.3
				c0.3-0.6,0.5-1.3,0.5-2.1c0-0.7-0.1-1.2-0.3-1.7c-0.3-0.7-0.9-1-1.8-1c-0.8,0-1.3,0.3-1.6,0.9c-0.3,0.6-0.5,1.3-0.5,2.1
				c0,0.8,0.2,1.4,0.5,2c0.3,0.5,0.9,0.8,1.6,0.8C459.9,593.2,460.4,592.9,460.7,592.3z"/>
			<path d="M464,586.7h1.2v1c0.3-0.4,0.7-0.7,1.1-0.9c0.4-0.2,0.8-0.3,1.3-0.3c1,0,1.7,0.4,2.1,1.1c0.2,0.4,0.3,1,0.3,1.7v4.7h-1.3
				v-4.6c0-0.4-0.1-0.8-0.2-1.1c-0.2-0.5-0.6-0.7-1.2-0.7c-0.3,0-0.5,0-0.7,0.1c-0.3,0.1-0.6,0.3-0.9,0.6c-0.2,0.2-0.3,0.5-0.4,0.8
				c-0.1,0.3-0.1,0.6-0.1,1.1v3.8H464V586.7z"/>
			<path d="M475.8,586.9c0.2,0.1,0.5,0.4,0.7,0.7v-3.7h1.2V594h-1.1v-1c-0.3,0.5-0.6,0.8-1,1c-0.4,0.2-0.8,0.3-1.4,0.3
				c-0.8,0-1.5-0.3-2.1-1c-0.6-0.7-0.9-1.6-0.9-2.7c0-1.1,0.3-2,0.8-2.8c0.5-0.8,1.3-1.2,2.3-1.2C475,586.5,475.4,586.7,475.8,586.9
				z M473,592.4c0.3,0.5,0.9,0.8,1.6,0.8c0.6,0,1-0.2,1.4-0.7c0.4-0.5,0.6-1.2,0.6-2.1c0-0.9-0.2-1.6-0.6-2.1
				c-0.4-0.4-0.8-0.7-1.4-0.7c-0.6,0-1.1,0.2-1.5,0.7c-0.4,0.5-0.6,1.2-0.6,2.1C472.5,591.2,472.7,591.9,473,592.4z"/>
			<path d="M479.6,583.9h1.3v1.4h-1.3V583.9z M479.6,586.7h1.3v7.3h-1.3V586.7z"/>
			<path d="M487.5,587.1c0.5,0.4,0.8,1.1,0.9,2.1h-1.2c-0.1-0.5-0.2-0.8-0.5-1.1c-0.3-0.3-0.7-0.4-1.3-0.4c-0.8,0-1.3,0.4-1.7,1.2
				c-0.2,0.5-0.3,1.1-0.3,1.8c0,0.7,0.2,1.4,0.5,1.9c0.3,0.5,0.8,0.8,1.5,0.8c0.5,0,0.9-0.2,1.2-0.5c0.3-0.3,0.5-0.7,0.6-1.3h1.2
				c-0.1,1-0.5,1.7-1,2.1c-0.5,0.4-1.3,0.7-2.1,0.7c-1,0-1.7-0.3-2.3-1.1s-0.9-1.6-0.9-2.6c0-1.3,0.3-2.3,0.9-3
				c0.6-0.7,1.4-1.1,2.4-1.1C486.3,586.5,487,586.7,487.5,587.1z"/>
			<path d="M489.7,583.9h1.3v1.4h-1.3V583.9z M489.7,586.7h1.3v7.3h-1.3V586.7z"/>
			<path d="M498.2,587.4c0.7,0.6,1,1.6,1,2.8c0,1.2-0.3,2.2-0.9,2.9c-0.6,0.8-1.5,1.2-2.7,1.2c-1,0-1.8-0.3-2.4-1
				c-0.6-0.7-0.9-1.6-0.9-2.8c0-1.2,0.3-2.2,0.9-2.9c0.6-0.7,1.5-1.1,2.5-1.1C496.7,586.5,497.5,586.8,498.2,587.4z M497.4,592.3
				c0.3-0.6,0.5-1.3,0.5-2.1c0-0.7-0.1-1.2-0.3-1.7c-0.3-0.7-0.9-1-1.8-1c-0.8,0-1.3,0.3-1.6,0.9c-0.3,0.6-0.5,1.3-0.5,2.1
				c0,0.8,0.2,1.4,0.5,2c0.3,0.5,0.9,0.8,1.6,0.8C496.6,593.2,497.1,592.9,497.4,592.3z"/>
			<path d="M500.6,586.7h1.2v1c0.3-0.4,0.7-0.7,1.1-0.9c0.4-0.2,0.8-0.3,1.3-0.3c1,0,1.7,0.4,2.1,1.1c0.2,0.4,0.3,1,0.3,1.7v4.7
				h-1.3v-4.6c0-0.4-0.1-0.8-0.2-1.1c-0.2-0.5-0.6-0.7-1.2-0.7c-0.3,0-0.5,0-0.7,0.1c-0.3,0.1-0.6,0.3-0.9,0.6
				c-0.2,0.2-0.3,0.5-0.4,0.8c-0.1,0.3-0.1,0.6-0.1,1.1v3.8h-1.2V586.7z"/>
			<path d="M513,586.9c0.5,0.2,0.9,0.6,1.1,0.9c0.2,0.4,0.4,0.8,0.5,1.3c0.1,0.3,0.1,0.9,0.1,1.6h-5.4c0,0.7,0.2,1.3,0.5,1.8
				c0.3,0.5,0.8,0.7,1.5,0.7c0.6,0,1.2-0.2,1.5-0.6c0.2-0.2,0.4-0.5,0.5-0.9h1.2c0,0.3-0.1,0.6-0.3,0.9c-0.2,0.3-0.4,0.6-0.6,0.8
				c-0.4,0.4-0.8,0.6-1.4,0.7c-0.3,0.1-0.6,0.1-1,0.1c-0.9,0-1.7-0.3-2.3-1s-1-1.6-1-2.8c0-1.2,0.3-2.1,1-2.9
				c0.6-0.7,1.5-1.1,2.5-1.1C512,586.5,512.5,586.6,513,586.9z M513.5,589.8c-0.1-0.5-0.2-1-0.4-1.3c-0.3-0.6-0.9-0.9-1.7-0.9
				c-0.6,0-1,0.2-1.4,0.6c-0.4,0.4-0.6,0.9-0.6,1.6H513.5z"/>
			<path d="M517,591.7c0,0.4,0.1,0.7,0.3,0.9c0.3,0.4,0.9,0.6,1.6,0.6c0.5,0,0.9-0.1,1.2-0.3c0.3-0.2,0.5-0.5,0.5-0.9
				c0-0.3-0.1-0.6-0.4-0.7c-0.2-0.1-0.5-0.2-1.1-0.4l-1-0.2c-0.6-0.2-1.1-0.3-1.4-0.5c-0.5-0.3-0.8-0.8-0.8-1.4
				c0-0.7,0.3-1.3,0.8-1.7c0.5-0.4,1.2-0.6,2-0.6c1.1,0,1.9,0.3,2.4,1c0.3,0.4,0.5,0.9,0.4,1.3h-1.2c0-0.3-0.1-0.5-0.3-0.8
				c-0.3-0.3-0.8-0.5-1.5-0.5c-0.5,0-0.8,0.1-1.1,0.3c-0.2,0.2-0.4,0.4-0.4,0.7c0,0.3,0.2,0.6,0.5,0.8c0.2,0.1,0.5,0.2,0.8,0.3
				l0.8,0.2c0.9,0.2,1.5,0.4,1.8,0.6c0.5,0.3,0.7,0.8,0.7,1.5c0,0.7-0.2,1.2-0.7,1.7c-0.5,0.5-1.3,0.7-2.3,0.7
				c-1.1,0-1.9-0.2-2.3-0.7c-0.5-0.5-0.7-1.1-0.7-1.8H517z"/>
			<path d="M446.7,608.6c0,0.4,0.1,0.7,0.3,0.9c0.3,0.4,0.9,0.6,1.6,0.6c0.5,0,0.9-0.1,1.2-0.3c0.3-0.2,0.5-0.5,0.5-0.9
				c0-0.3-0.1-0.6-0.4-0.7c-0.2-0.1-0.5-0.2-1.1-0.4l-1-0.2c-0.6-0.2-1.1-0.3-1.4-0.5c-0.5-0.3-0.8-0.8-0.8-1.4
				c0-0.7,0.3-1.3,0.8-1.7c0.5-0.4,1.2-0.6,2-0.6c1.1,0,1.9,0.3,2.4,1c0.3,0.4,0.5,0.9,0.4,1.3h-1.2c0-0.3-0.1-0.5-0.3-0.8
				c-0.3-0.3-0.8-0.5-1.5-0.5c-0.5,0-0.8,0.1-1.1,0.3c-0.2,0.2-0.4,0.4-0.4,0.7c0,0.3,0.2,0.6,0.5,0.8c0.2,0.1,0.5,0.2,0.8,0.3
				l0.8,0.2c0.9,0.2,1.5,0.4,1.8,0.6c0.5,0.3,0.7,0.8,0.7,1.5c0,0.7-0.2,1.2-0.7,1.7c-0.5,0.5-1.3,0.7-2.3,0.7
				c-1.1,0-1.9-0.2-2.3-0.7c-0.5-0.5-0.7-1.1-0.7-1.8H446.7z"/>
			<path d="M458.4,604.3c0.7,0.6,1,1.6,1,2.8c0,1.2-0.3,2.2-0.9,2.9c-0.6,0.8-1.5,1.2-2.7,1.2c-1,0-1.8-0.3-2.4-1
				c-0.6-0.7-0.9-1.6-0.9-2.8c0-1.2,0.3-2.2,0.9-2.9c0.6-0.7,1.5-1.1,2.5-1.1C456.9,603.3,457.7,603.6,458.4,604.3z M457.6,609.1
				c0.3-0.6,0.5-1.3,0.5-2.1c0-0.7-0.1-1.2-0.3-1.7c-0.3-0.7-0.9-1-1.8-1c-0.8,0-1.3,0.3-1.6,0.9s-0.5,1.3-0.5,2.1
				c0,0.8,0.2,1.4,0.5,2s0.9,0.8,1.6,0.8C456.8,610.1,457.3,609.8,457.6,609.1z"/>
			<path d="M465.7,603.9c0.5,0.4,0.8,1.1,0.9,2.1h-1.2c-0.1-0.5-0.2-0.8-0.5-1.1c-0.3-0.3-0.7-0.4-1.3-0.4c-0.8,0-1.3,0.4-1.7,1.2
				c-0.2,0.5-0.3,1.1-0.3,1.8c0,0.7,0.2,1.4,0.5,1.9c0.3,0.5,0.8,0.8,1.5,0.8c0.5,0,0.9-0.2,1.2-0.5c0.3-0.3,0.5-0.7,0.6-1.3h1.2
				c-0.1,1-0.5,1.7-1,2.1c-0.5,0.4-1.3,0.7-2.1,0.7c-1,0-1.7-0.3-2.3-1.1s-0.9-1.6-0.9-2.6c0-1.3,0.3-2.3,0.9-3
				c0.6-0.7,1.4-1.1,2.4-1.1C464.5,603.3,465.2,603.5,465.7,603.9z"/>
			<path d="M467.9,600.8h1.3v1.4h-1.3V600.8z M467.9,603.6h1.3v7.3h-1.3V603.6z"/>
			<path d="M476.3,604.3c0.7,0.6,1,1.6,1,2.8c0,1.2-0.3,2.2-0.9,2.9c-0.6,0.8-1.5,1.2-2.7,1.2c-1,0-1.8-0.3-2.4-1
				c-0.6-0.7-0.9-1.6-0.9-2.8c0-1.2,0.3-2.2,0.9-2.9c0.6-0.7,1.5-1.1,2.5-1.1C474.9,603.3,475.7,603.6,476.3,604.3z M475.6,609.1
				c0.3-0.6,0.5-1.3,0.5-2.1c0-0.7-0.1-1.2-0.3-1.7c-0.3-0.7-0.9-1-1.8-1c-0.8,0-1.3,0.3-1.6,0.9s-0.5,1.3-0.5,2.1
				c0,0.8,0.2,1.4,0.5,2s0.9,0.8,1.6,0.8C474.7,610.1,475.3,609.8,475.6,609.1z"/>
			<path d="M483.6,603.9c0.5,0.4,0.8,1.1,0.9,2.1h-1.2c-0.1-0.5-0.2-0.8-0.5-1.1c-0.3-0.3-0.7-0.4-1.3-0.4c-0.8,0-1.3,0.4-1.7,1.2
				c-0.2,0.5-0.3,1.1-0.3,1.8c0,0.7,0.2,1.4,0.5,1.9c0.3,0.5,0.8,0.8,1.5,0.8c0.5,0,0.9-0.2,1.2-0.5c0.3-0.3,0.5-0.7,0.6-1.3h1.2
				c-0.1,1-0.5,1.7-1,2.1c-0.5,0.4-1.3,0.7-2.1,0.7c-1,0-1.7-0.3-2.3-1.1s-0.9-1.6-0.9-2.6c0-1.3,0.3-2.3,0.9-3
				c0.6-0.7,1.4-1.1,2.4-1.1C482.4,603.3,483.1,603.5,483.6,603.9z"/>
			<path d="M487,603.5v4.9c0,0.4,0.1,0.7,0.2,0.9c0.2,0.4,0.6,0.7,1.2,0.7c0.9,0,1.4-0.4,1.8-1.2c0.2-0.4,0.3-1,0.3-1.7v-3.6h1.2
				v7.3h-1.2l0-1.1c-0.2,0.3-0.4,0.5-0.6,0.7c-0.5,0.4-1,0.6-1.7,0.6c-1,0-1.8-0.3-2.1-1c-0.2-0.4-0.3-0.9-0.3-1.5v-5H487z"/>
			<path d="M493.6,600.8h1.2v10.1h-1.2V600.8z"/>
			<path d="M497,601.5h1.2v2h1.2v1h-1.2v4.8c0,0.3,0.1,0.4,0.3,0.5c0.1,0,0.3,0.1,0.5,0.1c0.1,0,0.1,0,0.2,0c0.1,0,0.1,0,0.2,0v1
				c-0.1,0-0.3,0.1-0.4,0.1c-0.2,0-0.3,0-0.5,0c-0.6,0-1-0.1-1.2-0.4s-0.3-0.7-0.3-1.1v-4.9h-1v-1h1V601.5z"/>
			<path d="M501.9,603.5v4.9c0,0.4,0.1,0.7,0.2,0.9c0.2,0.4,0.6,0.7,1.2,0.7c0.9,0,1.4-0.4,1.8-1.2c0.2-0.4,0.3-1,0.3-1.7v-3.6h1.2
				v7.3h-1.2l0-1.1c-0.2,0.3-0.4,0.5-0.6,0.7c-0.5,0.4-1,0.6-1.7,0.6c-1,0-1.8-0.3-2.1-1c-0.2-0.4-0.3-0.9-0.3-1.5v-5H501.9z"/>
			<path d="M508.5,603.5h1.2v1.3c0.1-0.2,0.3-0.5,0.7-0.9c0.4-0.4,0.8-0.5,1.3-0.5c0,0,0.1,0,0.1,0c0.1,0,0.1,0,0.3,0v1.3
				c-0.1,0-0.1,0-0.2,0c-0.1,0-0.1,0-0.2,0c-0.6,0-1.1,0.2-1.4,0.6c-0.3,0.4-0.5,0.9-0.5,1.4v4.2h-1.2V603.5z"/>
			<path d="M517.1,606.4c0.3,0,0.5-0.2,0.6-0.4c0.1-0.1,0.1-0.3,0.1-0.5c0-0.4-0.1-0.7-0.4-0.9c-0.3-0.2-0.7-0.3-1.3-0.3
				c-0.6,0-1.1,0.2-1.4,0.5c-0.2,0.2-0.2,0.5-0.3,0.9h-1.2c0-0.9,0.3-1.5,0.9-1.9c0.6-0.4,1.2-0.5,2-0.5c0.9,0,1.6,0.2,2.1,0.5
				c0.5,0.3,0.8,0.8,0.8,1.5v4.2c0,0.1,0,0.2,0.1,0.3c0.1,0.1,0.2,0.1,0.3,0.1c0.1,0,0.1,0,0.2,0c0.1,0,0.1,0,0.2,0v0.9
				c-0.2,0.1-0.3,0.1-0.4,0.1c-0.1,0-0.2,0-0.4,0c-0.4,0-0.7-0.1-0.9-0.5c-0.1-0.2-0.2-0.4-0.2-0.7c-0.3,0.3-0.6,0.6-1.1,0.9
				c-0.5,0.2-1,0.4-1.6,0.4c-0.7,0-1.2-0.2-1.7-0.6c-0.4-0.4-0.6-0.9-0.6-1.6c0-0.7,0.2-1.2,0.6-1.6c0.4-0.4,1-0.6,1.7-0.7
				L517.1,606.4z M514.5,609.8c0.3,0.2,0.6,0.3,0.9,0.3c0.4,0,0.9-0.1,1.3-0.3c0.7-0.3,1-0.9,1-1.6v-1c-0.2,0.1-0.3,0.2-0.6,0.2
				c-0.2,0.1-0.5,0.1-0.7,0.1l-0.7,0.1c-0.4,0.1-0.8,0.2-1,0.3c-0.4,0.2-0.6,0.6-0.6,1C514.1,609.3,514.2,609.6,514.5,609.8z"/>
			<path d="M521,600.8h1.2v10.1H521V600.8z"/>
			<path d="M528.6,603.7c0.5,0.2,0.9,0.6,1.1,0.9c0.2,0.4,0.4,0.8,0.5,1.3c0.1,0.3,0.1,0.9,0.1,1.6H525c0,0.7,0.2,1.3,0.5,1.8
				c0.3,0.5,0.8,0.7,1.5,0.7c0.6,0,1.2-0.2,1.5-0.6c0.2-0.2,0.4-0.5,0.5-0.9h1.2c0,0.3-0.1,0.6-0.3,0.9c-0.2,0.3-0.4,0.6-0.6,0.8
				c-0.4,0.4-0.8,0.6-1.4,0.7c-0.3,0.1-0.6,0.1-1,0.1c-0.9,0-1.7-0.3-2.3-1c-0.6-0.7-1-1.6-1-2.8c0-1.2,0.3-2.1,1-2.9
				c0.6-0.7,1.5-1.1,2.5-1.1C527.6,603.4,528.1,603.5,528.6,603.7z M529.1,606.6c-0.1-0.5-0.2-1-0.3-1.3c-0.3-0.6-0.9-0.9-1.7-0.9
				c-0.6,0-1,0.2-1.4,0.6c-0.4,0.4-0.6,0.9-0.6,1.6H529.1z"/>
			<path d="M532.6,608.6c0,0.4,0.1,0.7,0.3,0.9c0.3,0.4,0.9,0.6,1.6,0.6c0.5,0,0.9-0.1,1.2-0.3c0.3-0.2,0.5-0.5,0.5-0.9
				c0-0.3-0.1-0.6-0.4-0.7c-0.2-0.1-0.5-0.2-1.1-0.4l-1-0.2c-0.6-0.2-1.1-0.3-1.4-0.5c-0.5-0.3-0.8-0.8-0.8-1.4
				c0-0.7,0.3-1.3,0.8-1.7c0.5-0.4,1.2-0.6,2-0.6c1.1,0,1.9,0.3,2.4,1c0.3,0.4,0.5,0.9,0.4,1.3h-1.2c0-0.3-0.1-0.5-0.3-0.8
				c-0.3-0.3-0.8-0.5-1.5-0.5c-0.5,0-0.8,0.1-1.1,0.3c-0.2,0.2-0.4,0.4-0.4,0.7c0,0.3,0.2,0.6,0.5,0.8c0.2,0.1,0.5,0.2,0.8,0.3
				l0.8,0.2c0.9,0.2,1.5,0.4,1.8,0.6c0.5,0.3,0.7,0.8,0.7,1.5c0,0.7-0.2,1.2-0.7,1.7c-0.5,0.5-1.3,0.7-2.3,0.7
				c-1.1,0-1.9-0.2-2.3-0.7c-0.5-0.5-0.7-1.1-0.7-1.8H532.6z"/>
		</g>
	</g>
	<g>
		<g>
			<path d="M572.7,583.9h1.5l3.7,10.1h-1.5l-1-3h-4l-1.1,3h-1.4L572.7,583.9z M574.9,589.9l-1.5-4.5l-1.6,4.5H574.9z"/>
			<path d="M578.9,586.7h1.2v1c0.3-0.4,0.6-0.6,0.8-0.8c0.4-0.3,0.9-0.4,1.4-0.4c0.6,0,1.1,0.1,1.4,0.4c0.2,0.2,0.4,0.4,0.5,0.7
				c0.3-0.4,0.6-0.7,1-0.9c0.4-0.2,0.8-0.3,1.2-0.3c1,0,1.7,0.4,2,1.1c0.2,0.4,0.3,0.9,0.3,1.5v4.9h-1.3v-5.1c0-0.5-0.1-0.8-0.4-1
				c-0.2-0.2-0.5-0.3-0.9-0.3c-0.5,0-0.9,0.2-1.3,0.5c-0.3,0.3-0.5,0.9-0.5,1.6v4.3h-1.3v-4.8c0-0.5-0.1-0.9-0.2-1.1
				c-0.2-0.3-0.5-0.5-1-0.5c-0.5,0-0.9,0.2-1.3,0.5c-0.4,0.4-0.6,1-0.6,2v3.9h-1.2V586.7z"/>
			<path d="M590.5,583.9h1.2v3.7c0.3-0.4,0.6-0.6,1-0.8c0.4-0.2,0.8-0.3,1.2-0.3c0.9,0,1.7,0.3,2.2,0.9c0.6,0.6,0.9,1.6,0.9,2.8
				c0,1.2-0.3,2.1-0.8,2.9c-0.6,0.8-1.3,1.2-2.3,1.2c-0.6,0-1-0.1-1.4-0.4c-0.2-0.2-0.5-0.4-0.7-0.8v0.9h-1.1V583.9z M595.2,592.4
				c0.3-0.5,0.5-1.2,0.5-2.1c0-0.8-0.2-1.4-0.5-1.9c-0.3-0.5-0.8-0.8-1.5-0.8c-0.6,0-1.1,0.2-1.5,0.6c-0.4,0.4-0.6,1.1-0.6,2.1
				c0,0.7,0.1,1.3,0.3,1.7c0.3,0.8,0.9,1.2,1.8,1.2C594.4,593.2,594.9,592.9,595.2,592.4z"/>
			<path d="M598.4,583.9h1.3v1.4h-1.3V583.9z M598.4,586.7h1.3v7.3h-1.3V586.7z"/>
			<path d="M606.1,586.9c0.5,0.2,0.9,0.6,1.1,0.9c0.2,0.4,0.4,0.8,0.5,1.3c0.1,0.3,0.1,0.9,0.1,1.6h-5.4c0,0.7,0.2,1.3,0.5,1.8
				c0.3,0.5,0.8,0.7,1.5,0.7c0.6,0,1.2-0.2,1.5-0.6c0.2-0.2,0.4-0.5,0.5-0.9h1.2c0,0.3-0.1,0.6-0.3,0.9c-0.2,0.3-0.4,0.6-0.6,0.8
				c-0.4,0.4-0.8,0.6-1.4,0.7c-0.3,0.1-0.6,0.1-1,0.1c-0.9,0-1.7-0.3-2.3-1c-0.6-0.7-1-1.6-1-2.8c0-1.2,0.3-2.1,1-2.9
				c0.6-0.7,1.5-1.1,2.5-1.1C605.1,586.5,605.6,586.6,606.1,586.9z M606.6,589.8c-0.1-0.5-0.2-1-0.4-1.3c-0.3-0.6-0.9-0.9-1.7-0.9
				c-0.6,0-1,0.2-1.4,0.6c-0.4,0.4-0.6,0.9-0.6,1.6H606.6z"/>
			<path d="M609.4,586.7h1.2v1c0.3-0.4,0.7-0.7,1.1-0.9c0.4-0.2,0.8-0.3,1.3-0.3c1,0,1.7,0.4,2.1,1.1c0.2,0.4,0.3,1,0.3,1.7v4.7
				h-1.3v-4.6c0-0.4-0.1-0.8-0.2-1.1c-0.2-0.5-0.6-0.7-1.2-0.7c-0.3,0-0.5,0-0.7,0.1c-0.3,0.1-0.6,0.3-0.9,0.6
				c-0.2,0.2-0.3,0.5-0.4,0.8c-0.1,0.3-0.1,0.6-0.1,1.1v3.8h-1.2V586.7z"/>
			<path d="M617.4,584.6h1.2v2h1.2v1h-1.2v4.8c0,0.3,0.1,0.4,0.3,0.5c0.1,0,0.3,0.1,0.5,0.1c0.1,0,0.1,0,0.2,0c0.1,0,0.1,0,0.2,0v1
				c-0.1,0-0.3,0.1-0.4,0.1c-0.2,0-0.3,0-0.5,0c-0.6,0-1-0.1-1.2-0.4s-0.3-0.7-0.3-1.1v-4.9h-1v-1h1V584.6z"/>
			<path d="M625.7,586.9c0.5,0.2,0.9,0.6,1.1,0.9c0.2,0.4,0.4,0.8,0.5,1.3c0.1,0.3,0.1,0.9,0.1,1.6H622c0,0.7,0.2,1.3,0.5,1.8
				c0.3,0.5,0.8,0.7,1.5,0.7c0.6,0,1.2-0.2,1.5-0.6c0.2-0.2,0.4-0.5,0.5-0.9h1.2c0,0.3-0.1,0.6-0.3,0.9c-0.2,0.3-0.4,0.6-0.6,0.8
				c-0.4,0.4-0.8,0.6-1.4,0.7c-0.3,0.1-0.6,0.1-1,0.1c-0.9,0-1.7-0.3-2.3-1c-0.6-0.7-1-1.6-1-2.8c0-1.2,0.3-2.1,1-2.9
				c0.6-0.7,1.5-1.1,2.5-1.1C624.7,586.5,625.2,586.6,625.7,586.9z M626.1,589.8c-0.1-0.5-0.2-1-0.3-1.3c-0.3-0.6-0.9-0.9-1.7-0.9
				c-0.6,0-1,0.2-1.4,0.6c-0.4,0.4-0.6,0.9-0.6,1.6H626.1z"/>
			<path d="M573.6,603.8c0.2,0.1,0.5,0.4,0.7,0.7v-3.7h1.2v10.1h-1.1v-1c-0.3,0.5-0.6,0.8-1,1c-0.4,0.2-0.8,0.3-1.4,0.3
				c-0.8,0-1.5-0.3-2.1-1c-0.6-0.7-0.9-1.6-0.9-2.7c0-1.1,0.3-2,0.8-2.8c0.5-0.8,1.3-1.2,2.3-1.2
				C572.8,603.4,573.2,603.5,573.6,603.8z M570.8,609.3c0.3,0.5,0.9,0.8,1.6,0.8c0.6,0,1-0.2,1.4-0.7c0.4-0.5,0.6-1.2,0.6-2.1
				c0-0.9-0.2-1.6-0.6-2.1c-0.4-0.4-0.8-0.7-1.4-0.7c-0.6,0-1.1,0.2-1.5,0.7c-0.4,0.5-0.6,1.2-0.6,2.1
				C570.3,608.1,570.5,608.7,570.8,609.3z"/>
			<path d="M581.9,603.7c0.5,0.2,0.9,0.6,1.1,0.9c0.2,0.4,0.4,0.8,0.5,1.3c0.1,0.3,0.1,0.9,0.1,1.6h-5.4c0,0.7,0.2,1.3,0.5,1.8
				c0.3,0.5,0.8,0.7,1.5,0.7c0.6,0,1.2-0.2,1.5-0.6c0.2-0.2,0.4-0.5,0.5-0.9h1.2c0,0.3-0.1,0.6-0.3,0.9c-0.2,0.3-0.4,0.6-0.6,0.8
				c-0.4,0.4-0.8,0.6-1.4,0.7c-0.3,0.1-0.6,0.1-1,0.1c-0.9,0-1.7-0.3-2.3-1c-0.6-0.7-1-1.6-1-2.8c0-1.2,0.3-2.1,1-2.9
				c0.6-0.7,1.5-1.1,2.5-1.1C581,603.4,581.5,603.5,581.9,603.7z M582.4,606.6c-0.1-0.5-0.2-1-0.3-1.3c-0.3-0.6-0.9-0.9-1.7-0.9
				c-0.6,0-1,0.2-1.4,0.6c-0.4,0.4-0.6,0.9-0.6,1.6H582.4z"/>
			<path d="M589.1,603.5h1.2v1c0.3-0.4,0.7-0.7,1.1-0.9c0.4-0.2,0.8-0.3,1.3-0.3c1,0,1.7,0.4,2.1,1.1c0.2,0.4,0.3,1,0.3,1.7v4.7
				h-1.3v-4.6c0-0.4-0.1-0.8-0.2-1.1c-0.2-0.5-0.6-0.7-1.2-0.7c-0.3,0-0.5,0-0.7,0.1c-0.3,0.1-0.6,0.3-0.9,0.6
				c-0.2,0.2-0.3,0.5-0.4,0.8c-0.1,0.3-0.1,0.6-0.1,1.1v3.8h-1.2V603.5z"/>
			<path d="M601.5,603.7c0.5,0.2,0.9,0.6,1.1,0.9c0.2,0.4,0.4,0.8,0.5,1.3c0.1,0.3,0.1,0.9,0.1,1.6h-5.4c0,0.7,0.2,1.3,0.5,1.8
				c0.3,0.5,0.8,0.7,1.5,0.7c0.6,0,1.2-0.2,1.5-0.6c0.2-0.2,0.4-0.5,0.5-0.9h1.2c0,0.3-0.1,0.6-0.3,0.9c-0.2,0.3-0.4,0.6-0.6,0.8
				c-0.4,0.4-0.8,0.6-1.4,0.7c-0.3,0.1-0.6,0.1-1,0.1c-0.9,0-1.7-0.3-2.3-1c-0.6-0.7-1-1.6-1-2.8c0-1.2,0.3-2.1,1-2.9
				c0.6-0.7,1.5-1.1,2.5-1.1C600.5,603.4,601,603.5,601.5,603.7z M601.9,606.6c-0.1-0.5-0.2-1-0.4-1.3c-0.3-0.6-0.9-0.9-1.7-0.9
				c-0.6,0-1,0.2-1.4,0.6c-0.4,0.4-0.6,0.9-0.6,1.6H601.9z"/>
			<path d="M608.8,603.8c0.2,0.2,0.5,0.4,0.7,0.7v-0.9h1.1v6.7c0,0.9-0.1,1.7-0.4,2.2c-0.5,1-1.5,1.5-2.9,1.5c-0.8,0-1.5-0.2-2-0.5
				c-0.5-0.4-0.8-0.9-0.9-1.7h1.3c0.1,0.3,0.2,0.6,0.4,0.8c0.3,0.3,0.7,0.4,1.3,0.4c0.9,0,1.6-0.3,1.9-1c0.2-0.4,0.3-1.1,0.2-2.1
				c-0.2,0.4-0.5,0.7-0.9,0.8c-0.3,0.2-0.8,0.3-1.4,0.3c-0.8,0-1.5-0.3-2.1-0.8c-0.6-0.6-0.9-1.5-0.9-2.8c0-1.2,0.3-2.2,0.9-2.9
				c0.6-0.7,1.3-1,2.2-1C607.9,603.4,608.4,603.5,608.8,603.8z M609,605.1c-0.4-0.4-0.9-0.7-1.4-0.7c-0.9,0-1.5,0.4-1.8,1.2
				c-0.2,0.4-0.3,1-0.3,1.7c0,0.8,0.2,1.5,0.5,1.9c0.3,0.4,0.8,0.6,1.4,0.6c0.9,0,1.5-0.4,1.9-1.2c0.2-0.5,0.3-1,0.3-1.6
				C609.5,606.3,609.3,605.6,609,605.1z"/>
			<path d="M617.9,604.3c0.7,0.6,1,1.6,1,2.8c0,1.2-0.3,2.2-0.9,2.9c-0.6,0.8-1.5,1.2-2.7,1.2c-1,0-1.8-0.3-2.4-1
				c-0.6-0.7-0.9-1.6-0.9-2.8c0-1.2,0.3-2.2,0.9-2.9c0.6-0.7,1.5-1.1,2.5-1.1C616.4,603.3,617.2,603.6,617.9,604.3z M617.1,609.1
				c0.3-0.6,0.5-1.3,0.5-2.1c0-0.7-0.1-1.2-0.3-1.7c-0.3-0.7-0.9-1-1.8-1c-0.8,0-1.3,0.3-1.6,0.9s-0.5,1.3-0.5,2.1
				c0,0.8,0.2,1.4,0.5,2s0.9,0.8,1.6,0.8C616.2,610.1,616.8,609.8,617.1,609.1z"/>
			<path d="M625.2,603.9c0.5,0.4,0.8,1.1,0.9,2.1h-1.2c-0.1-0.5-0.2-0.8-0.5-1.1c-0.3-0.3-0.7-0.4-1.3-0.4c-0.8,0-1.3,0.4-1.7,1.2
				c-0.2,0.5-0.3,1.1-0.3,1.8c0,0.7,0.2,1.4,0.5,1.9c0.3,0.5,0.8,0.8,1.5,0.8c0.5,0,0.9-0.2,1.2-0.5c0.3-0.3,0.5-0.7,0.6-1.3h1.2
				c-0.1,1-0.5,1.7-1,2.1c-0.5,0.4-1.3,0.7-2.1,0.7c-1,0-1.7-0.3-2.3-1.1s-0.9-1.6-0.9-2.6c0-1.3,0.3-2.3,0.9-3
				c0.6-0.7,1.4-1.1,2.4-1.1C624,603.3,624.7,603.5,625.2,603.9z"/>
			<path d="M627.3,600.8h1.3v1.4h-1.3V600.8z M627.3,603.6h1.3v7.3h-1.3V603.6z"/>
			<path d="M635.8,604.3c0.7,0.6,1,1.6,1,2.8c0,1.2-0.3,2.2-0.9,2.9c-0.6,0.8-1.5,1.2-2.7,1.2c-1,0-1.8-0.3-2.4-1
				c-0.6-0.7-0.9-1.6-0.9-2.8c0-1.2,0.3-2.2,0.9-2.9s1.5-1.1,2.5-1.1C634.4,603.3,635.2,603.6,635.8,604.3z M635.1,609.1
				c0.3-0.6,0.5-1.3,0.5-2.1c0-0.7-0.1-1.2-0.3-1.7c-0.3-0.7-0.9-1-1.8-1c-0.8,0-1.3,0.3-1.6,0.9c-0.3,0.6-0.5,1.3-0.5,2.1
				c0,0.8,0.2,1.4,0.5,2c0.3,0.5,0.9,0.8,1.6,0.8C634.2,610.1,634.8,609.8,635.1,609.1z"/>
			<path d="M639,608.6c0,0.4,0.1,0.7,0.3,0.9c0.3,0.4,0.9,0.6,1.6,0.6c0.5,0,0.9-0.1,1.2-0.3c0.3-0.2,0.5-0.5,0.5-0.9
				c0-0.3-0.1-0.6-0.4-0.7c-0.2-0.1-0.5-0.2-1.1-0.4l-1-0.2c-0.6-0.2-1.1-0.3-1.4-0.5c-0.5-0.3-0.8-0.8-0.8-1.4
				c0-0.7,0.3-1.3,0.8-1.7c0.5-0.4,1.2-0.6,2-0.6c1.1,0,1.9,0.3,2.4,1c0.3,0.4,0.5,0.9,0.4,1.3h-1.2c0-0.3-0.1-0.5-0.3-0.8
				c-0.3-0.3-0.8-0.5-1.5-0.5c-0.5,0-0.8,0.1-1.1,0.3c-0.2,0.2-0.4,0.4-0.4,0.7c0,0.3,0.2,0.6,0.5,0.8c0.2,0.1,0.5,0.2,0.8,0.3
				l0.8,0.2c0.9,0.2,1.5,0.4,1.8,0.6c0.5,0.3,0.7,0.8,0.7,1.5c0,0.7-0.2,1.2-0.7,1.7c-0.5,0.5-1.3,0.7-2.3,0.7
				c-1.1,0-1.9-0.2-2.3-0.7c-0.5-0.5-0.7-1.1-0.7-1.8H639z"/>
		</g>
	</g>
	<g>
		<g>
			<path d="M700.5,584.7c0.7,0.7,1.1,1.4,1.2,2.3h-1.3c-0.2-0.6-0.5-1.2-0.9-1.5c-0.5-0.4-1.1-0.6-1.9-0.6c-1,0-1.8,0.3-2.4,1
				c-0.6,0.7-0.9,1.8-0.9,3.2c0,1.2,0.3,2.1,0.8,2.9c0.6,0.7,1.4,1.1,2.5,1.1c1,0,1.8-0.4,2.3-1.2c0.3-0.4,0.5-0.9,0.6-1.6h1.3
				c-0.1,1.1-0.5,2-1.2,2.7c-0.8,0.9-1.9,1.3-3.2,1.3c-1.2,0-2.2-0.4-2.9-1.1c-1-0.9-1.6-2.4-1.6-4.3c0-1.5,0.4-2.7,1.2-3.7
				c0.9-1,2-1.6,3.5-1.6C698.8,583.7,699.8,584,700.5,584.7z"/>
			<path d="M708.6,587.4c0.7,0.6,1,1.6,1,2.8c0,1.2-0.3,2.2-0.9,2.9c-0.6,0.8-1.5,1.2-2.7,1.2c-1,0-1.8-0.3-2.4-1
				c-0.6-0.7-0.9-1.6-0.9-2.8c0-1.2,0.3-2.2,0.9-2.9s1.5-1.1,2.5-1.1C707.2,586.5,708,586.8,708.6,587.4z M707.9,592.3
				c0.3-0.6,0.5-1.3,0.5-2.1c0-0.7-0.1-1.2-0.3-1.7c-0.3-0.7-0.9-1-1.8-1c-0.8,0-1.3,0.3-1.6,0.9c-0.3,0.6-0.5,1.3-0.5,2.1
				c0,0.8,0.2,1.4,0.5,2c0.3,0.5,0.9,0.8,1.6,0.8C707,593.2,707.6,592.9,707.9,592.3z"/>
			<path d="M711.1,586.7h1.2v1c0.3-0.4,0.7-0.7,1.1-0.9c0.4-0.2,0.8-0.3,1.3-0.3c1,0,1.7,0.4,2.1,1.1c0.2,0.4,0.3,1,0.3,1.7v4.7
				h-1.3v-4.6c0-0.4-0.1-0.8-0.2-1.1c-0.2-0.5-0.6-0.7-1.2-0.7c-0.3,0-0.5,0-0.7,0.1c-0.3,0.1-0.6,0.3-0.9,0.6
				c-0.2,0.2-0.3,0.5-0.4,0.8c-0.1,0.3-0.1,0.6-0.1,1.1v3.8h-1.2V586.7z"/>
			<path d="M722.9,586.9c0.2,0.1,0.5,0.4,0.7,0.7v-3.7h1.2V594h-1.1v-1c-0.3,0.5-0.6,0.8-1,1c-0.4,0.2-0.8,0.3-1.4,0.3
				c-0.8,0-1.5-0.3-2.1-1c-0.6-0.7-0.9-1.6-0.9-2.7c0-1.1,0.3-2,0.8-2.8c0.5-0.8,1.3-1.2,2.3-1.2
				C722.1,586.5,722.6,586.7,722.9,586.9z M720.2,592.4c0.3,0.5,0.9,0.8,1.6,0.8c0.6,0,1-0.2,1.4-0.7c0.4-0.5,0.6-1.2,0.6-2.1
				c0-0.9-0.2-1.6-0.6-2.1s-0.8-0.7-1.4-0.7c-0.6,0-1.1,0.2-1.5,0.7c-0.4,0.5-0.6,1.2-0.6,2.1C719.7,591.2,719.8,591.9,720.2,592.4z
				"/>
			<path d="M726.7,583.9h1.3v1.4h-1.3V583.9z M726.7,586.7h1.3v7.3h-1.3V586.7z"/>
			<path d="M734.7,587.1c0.5,0.4,0.8,1.1,0.9,2.1h-1.2c-0.1-0.5-0.2-0.8-0.5-1.1s-0.7-0.4-1.3-0.4c-0.8,0-1.3,0.4-1.7,1.2
				c-0.2,0.5-0.3,1.1-0.3,1.8c0,0.7,0.2,1.4,0.5,1.9c0.3,0.5,0.8,0.8,1.5,0.8c0.5,0,0.9-0.2,1.2-0.5c0.3-0.3,0.5-0.7,0.6-1.3h1.2
				c-0.1,1-0.5,1.7-1,2.1c-0.5,0.4-1.2,0.7-2.1,0.7c-1,0-1.7-0.3-2.3-1.1s-0.9-1.6-0.9-2.6c0-1.3,0.3-2.3,0.9-3
				c0.6-0.7,1.4-1.1,2.4-1.1C733.5,586.5,734.2,586.7,734.7,587.1z"/>
			<path d="M736.8,583.9h1.3v1.4h-1.3V583.9z M736.8,586.7h1.3v7.3h-1.3V586.7z"/>
			<path d="M745.3,587.4c0.7,0.6,1,1.6,1,2.8c0,1.2-0.3,2.2-0.9,2.9c-0.6,0.8-1.5,1.2-2.7,1.2c-1,0-1.8-0.3-2.4-1
				c-0.6-0.7-0.9-1.6-0.9-2.8c0-1.2,0.3-2.2,0.9-2.9s1.5-1.1,2.5-1.1C743.9,586.5,744.7,586.8,745.3,587.4z M744.6,592.3
				c0.3-0.6,0.5-1.3,0.5-2.1c0-0.7-0.1-1.2-0.3-1.7c-0.3-0.7-0.9-1-1.8-1c-0.8,0-1.3,0.3-1.6,0.9c-0.3,0.6-0.5,1.3-0.5,2.1
				c0,0.8,0.2,1.4,0.5,2c0.3,0.5,0.9,0.8,1.6,0.8C743.7,593.2,744.3,592.9,744.6,592.3z"/>
			<path d="M747.8,586.7h1.2v1c0.3-0.4,0.7-0.7,1.1-0.9c0.4-0.2,0.8-0.3,1.3-0.3c1,0,1.7,0.4,2.1,1.1c0.2,0.4,0.3,1,0.3,1.7v4.7
				h-1.3v-4.6c0-0.4-0.1-0.8-0.2-1.1c-0.2-0.5-0.6-0.7-1.2-0.7c-0.3,0-0.5,0-0.7,0.1c-0.3,0.1-0.6,0.3-0.9,0.6
				c-0.2,0.2-0.3,0.5-0.4,0.8c-0.1,0.3-0.1,0.6-0.1,1.1v3.8h-1.2V586.7z"/>
			<path d="M760.2,586.9c0.5,0.2,0.9,0.6,1.1,0.9c0.2,0.4,0.4,0.8,0.5,1.3c0.1,0.3,0.1,0.9,0.1,1.6h-5.4c0,0.7,0.2,1.3,0.5,1.8
				c0.3,0.5,0.8,0.7,1.5,0.7c0.6,0,1.2-0.2,1.5-0.6c0.2-0.2,0.4-0.5,0.5-0.9h1.2c0,0.3-0.1,0.6-0.3,0.9c-0.2,0.3-0.4,0.6-0.6,0.8
				c-0.4,0.4-0.8,0.6-1.4,0.7c-0.3,0.1-0.6,0.1-1,0.1c-0.9,0-1.7-0.3-2.3-1c-0.6-0.7-1-1.6-1-2.8c0-1.2,0.3-2.1,1-2.9
				c0.6-0.7,1.5-1.1,2.5-1.1C759.2,586.5,759.7,586.6,760.2,586.9z M760.6,589.8c-0.1-0.5-0.2-1-0.3-1.3c-0.3-0.6-0.9-0.9-1.7-0.9
				c-0.6,0-1,0.2-1.4,0.6c-0.4,0.4-0.6,0.9-0.6,1.6H760.6z"/>
			<path d="M764.1,591.7c0,0.4,0.1,0.7,0.3,0.9c0.3,0.4,0.9,0.6,1.6,0.6c0.5,0,0.9-0.1,1.2-0.3c0.3-0.2,0.5-0.5,0.5-0.9
				c0-0.3-0.1-0.6-0.4-0.7c-0.2-0.1-0.5-0.2-1.1-0.4l-1-0.2c-0.6-0.2-1.1-0.3-1.4-0.5c-0.5-0.3-0.8-0.8-0.8-1.4
				c0-0.7,0.3-1.3,0.8-1.7c0.5-0.4,1.2-0.6,2-0.6c1.1,0,1.9,0.3,2.4,1c0.3,0.4,0.5,0.9,0.4,1.3h-1.2c0-0.3-0.1-0.5-0.3-0.8
				c-0.3-0.3-0.8-0.5-1.5-0.5c-0.5,0-0.8,0.1-1.1,0.3c-0.2,0.2-0.4,0.4-0.4,0.7c0,0.3,0.2,0.6,0.5,0.8c0.2,0.1,0.5,0.2,0.8,0.3
				l0.8,0.2c0.9,0.2,1.5,0.4,1.8,0.6c0.5,0.3,0.7,0.8,0.7,1.5c0,0.7-0.2,1.2-0.7,1.7c-0.5,0.5-1.3,0.7-2.3,0.7
				c-1.1,0-1.9-0.2-2.3-0.7c-0.5-0.5-0.7-1.1-0.7-1.8H764.1z"/>
			<path d="M693.2,600.8h1.2v10.1h-1.2V600.8z"/>
			<path d="M700.2,606.4c0.3,0,0.5-0.2,0.6-0.4c0.1-0.1,0.1-0.3,0.1-0.5c0-0.4-0.1-0.7-0.4-0.9c-0.3-0.2-0.7-0.3-1.3-0.3
				c-0.6,0-1.1,0.2-1.4,0.5c-0.2,0.2-0.2,0.5-0.3,0.9h-1.2c0-0.9,0.3-1.5,0.9-1.9c0.6-0.4,1.2-0.5,2-0.5c0.9,0,1.6,0.2,2.1,0.5
				c0.5,0.3,0.8,0.8,0.8,1.5v4.2c0,0.1,0,0.2,0.1,0.3c0.1,0.1,0.2,0.1,0.3,0.1c0.1,0,0.1,0,0.2,0c0.1,0,0.1,0,0.2,0v0.9
				c-0.2,0.1-0.3,0.1-0.4,0.1c-0.1,0-0.2,0-0.4,0c-0.4,0-0.7-0.1-0.9-0.5c-0.1-0.2-0.2-0.4-0.2-0.7c-0.3,0.3-0.6,0.6-1.1,0.9
				c-0.5,0.2-1,0.4-1.6,0.4c-0.7,0-1.2-0.2-1.7-0.6c-0.4-0.4-0.6-0.9-0.6-1.6c0-0.7,0.2-1.2,0.6-1.6s1-0.6,1.7-0.7L700.2,606.4z
				 M697.6,609.8c0.3,0.2,0.6,0.3,0.9,0.3c0.4,0,0.9-0.1,1.3-0.3c0.7-0.3,1-0.9,1-1.6v-1c-0.2,0.1-0.3,0.2-0.6,0.2
				c-0.2,0.1-0.5,0.1-0.7,0.1l-0.7,0.1c-0.4,0.1-0.8,0.2-1,0.3c-0.4,0.2-0.6,0.6-0.6,1C697.2,609.3,697.3,609.6,697.6,609.8z"/>
			<path d="M704,600.8h1.2v3.7c0.3-0.4,0.6-0.6,1-0.8c0.4-0.2,0.8-0.3,1.2-0.3c0.9,0,1.7,0.3,2.2,0.9c0.6,0.6,0.9,1.6,0.9,2.8
				c0,1.2-0.3,2.1-0.8,2.9c-0.6,0.8-1.3,1.2-2.3,1.2c-0.6,0-1-0.1-1.4-0.4c-0.2-0.2-0.5-0.4-0.7-0.8v0.9H704V600.8z M708.7,609.2
				c0.3-0.5,0.5-1.2,0.5-2.1c0-0.8-0.2-1.4-0.5-1.9c-0.3-0.5-0.8-0.8-1.5-0.8c-0.6,0-1.1,0.2-1.5,0.6c-0.4,0.4-0.6,1.1-0.6,2.1
				c0,0.7,0.1,1.3,0.3,1.7c0.3,0.8,0.9,1.2,1.8,1.2C707.8,610,708.3,609.7,708.7,609.2z"/>
			<path d="M717.2,604.3c0.7,0.6,1,1.6,1,2.8c0,1.2-0.3,2.2-0.9,2.9c-0.6,0.8-1.5,1.2-2.7,1.2c-1,0-1.8-0.3-2.4-1
				c-0.6-0.7-0.9-1.6-0.9-2.8c0-1.2,0.3-2.2,0.9-2.9c0.6-0.7,1.5-1.1,2.5-1.1C715.8,603.3,716.6,603.6,717.2,604.3z M716.5,609.1
				c0.3-0.6,0.5-1.3,0.5-2.1c0-0.7-0.1-1.2-0.3-1.7c-0.3-0.7-0.9-1-1.8-1c-0.8,0-1.3,0.3-1.6,0.9s-0.5,1.3-0.5,2.1
				c0,0.8,0.2,1.4,0.5,2s0.9,0.8,1.6,0.8C715.6,610.1,716.2,609.8,716.5,609.1z"/>
			<path d="M719.7,603.5h1.2v1.3c0.1-0.2,0.3-0.5,0.7-0.9c0.4-0.4,0.8-0.5,1.3-0.5c0,0,0.1,0,0.1,0c0.1,0,0.1,0,0.3,0v1.3
				c-0.1,0-0.1,0-0.2,0c-0.1,0-0.1,0-0.2,0c-0.6,0-1.1,0.2-1.4,0.6c-0.3,0.4-0.5,0.9-0.5,1.4v4.2h-1.2V603.5z"/>
			<path d="M728.3,606.4c0.3,0,0.5-0.2,0.6-0.4c0.1-0.1,0.1-0.3,0.1-0.5c0-0.4-0.1-0.7-0.4-0.9c-0.3-0.2-0.7-0.3-1.3-0.3
				c-0.6,0-1.1,0.2-1.4,0.5c-0.2,0.2-0.2,0.5-0.3,0.9h-1.2c0-0.9,0.3-1.5,0.9-1.9c0.6-0.4,1.2-0.5,2-0.5c0.9,0,1.6,0.2,2.1,0.5
				c0.5,0.3,0.8,0.8,0.8,1.5v4.2c0,0.1,0,0.2,0.1,0.3c0.1,0.1,0.2,0.1,0.3,0.1c0.1,0,0.1,0,0.2,0c0.1,0,0.1,0,0.2,0v0.9
				c-0.2,0.1-0.3,0.1-0.4,0.1c-0.1,0-0.2,0-0.4,0c-0.4,0-0.7-0.1-0.9-0.5c-0.1-0.2-0.2-0.4-0.2-0.7c-0.3,0.3-0.6,0.6-1.1,0.9
				c-0.5,0.2-1,0.4-1.6,0.4c-0.7,0-1.2-0.2-1.7-0.6c-0.4-0.4-0.6-0.9-0.6-1.6c0-0.7,0.2-1.2,0.6-1.6c0.4-0.4,1-0.6,1.7-0.7
				L728.3,606.4z M725.7,609.8c0.3,0.2,0.6,0.3,0.9,0.3c0.4,0,0.9-0.1,1.3-0.3c0.7-0.3,1-0.9,1-1.6v-1c-0.2,0.1-0.3,0.2-0.6,0.2
				c-0.2,0.1-0.5,0.1-0.7,0.1l-0.7,0.1c-0.4,0.1-0.8,0.2-1,0.3c-0.4,0.2-0.6,0.6-0.6,1C725.3,609.3,725.4,609.6,725.7,609.8z"/>
			<path d="M732.2,600.8h1.2v10.1h-1.2V600.8z"/>
			<path d="M739.9,603.7c0.5,0.2,0.9,0.6,1.1,0.9c0.2,0.4,0.4,0.8,0.5,1.3c0.1,0.3,0.1,0.9,0.1,1.6h-5.4c0,0.7,0.2,1.3,0.5,1.8
				c0.3,0.5,0.8,0.7,1.5,0.7c0.6,0,1.2-0.2,1.5-0.6c0.2-0.2,0.4-0.5,0.5-0.9h1.2c0,0.3-0.1,0.6-0.3,0.9c-0.2,0.3-0.4,0.6-0.6,0.8
				c-0.4,0.4-0.8,0.6-1.4,0.7c-0.3,0.1-0.6,0.1-1,0.1c-0.9,0-1.7-0.3-2.3-1c-0.6-0.7-1-1.6-1-2.8c0-1.2,0.3-2.1,1-2.9
				c0.6-0.7,1.5-1.1,2.5-1.1C738.9,603.4,739.4,603.5,739.9,603.7z M740.3,606.6c-0.1-0.5-0.2-1-0.3-1.3c-0.3-0.6-0.9-0.9-1.7-0.9
				c-0.6,0-1,0.2-1.4,0.6c-0.4,0.4-0.6,0.9-0.6,1.6H740.3z"/>
			<path d="M743.8,608.6c0,0.4,0.1,0.7,0.3,0.9c0.3,0.4,0.9,0.6,1.6,0.6c0.5,0,0.9-0.1,1.2-0.3c0.3-0.2,0.5-0.5,0.5-0.9
				c0-0.3-0.1-0.6-0.4-0.7c-0.2-0.1-0.5-0.2-1.1-0.4l-1-0.2c-0.6-0.2-1.1-0.3-1.4-0.5c-0.5-0.3-0.8-0.8-0.8-1.4
				c0-0.7,0.3-1.3,0.8-1.7c0.5-0.4,1.2-0.6,2-0.6c1.1,0,1.9,0.3,2.4,1c0.3,0.4,0.5,0.9,0.4,1.3h-1.2c0-0.3-0.1-0.5-0.3-0.8
				c-0.3-0.3-0.8-0.5-1.5-0.5c-0.5,0-0.8,0.1-1.1,0.3c-0.2,0.2-0.4,0.4-0.4,0.7c0,0.3,0.2,0.6,0.5,0.8c0.2,0.1,0.5,0.2,0.8,0.3
				l0.8,0.2c0.9,0.2,1.5,0.4,1.8,0.6c0.5,0.3,0.7,0.8,0.7,1.5c0,0.7-0.2,1.2-0.7,1.7c-0.5,0.5-1.3,0.7-2.3,0.7
				c-1.1,0-1.9-0.2-2.3-0.7c-0.5-0.5-0.7-1.1-0.7-1.8H743.8z"/>
		</g>
	</g>
	<g>
		<g>
			<path class="st16" d="M821.5,562.5h3.5c0.8,0,1.4,0.1,1.8,0.2c0.6,0.2,1,0.4,1.4,0.9c0.4,0.4,0.7,0.9,0.9,1.5
				c0.2,0.6,0.3,1.3,0.3,2.2c0,0.8-0.1,1.4-0.3,2c-0.2,0.7-0.6,1.2-1,1.7c-0.3,0.3-0.8,0.6-1.3,0.7c-0.4,0.1-1,0.2-1.7,0.2h-3.6
				V562.5z M823.4,564.1v6.2h1.4c0.5,0,0.9,0,1.1-0.1c0.3-0.1,0.6-0.2,0.8-0.4c0.2-0.2,0.4-0.5,0.5-0.9c0.1-0.4,0.2-1,0.2-1.7
				s-0.1-1.3-0.2-1.7c-0.1-0.4-0.3-0.7-0.5-0.9c-0.2-0.2-0.5-0.4-0.9-0.4c-0.3-0.1-0.8-0.1-1.6-0.1H823.4z"/>
			<path class="st16" d="M831,564.1v-1.7h1.8v1.7H831z M831,571.9v-6.8h1.8v6.8H831z"/>
			<path class="st16" d="M834.5,565.1h1.7v0.9c0.6-0.7,1.3-1.1,2.1-1.1c0.4,0,0.8,0.1,1.1,0.3c0.3,0.2,0.6,0.4,0.8,0.8
				c0.3-0.4,0.6-0.6,1-0.8c0.3-0.2,0.7-0.3,1.1-0.3c0.5,0,0.9,0.1,1.3,0.3c0.3,0.2,0.6,0.5,0.8,0.9c0.1,0.3,0.2,0.8,0.2,1.4v4.3
				h-1.8V568c0-0.7-0.1-1.1-0.2-1.3c-0.2-0.3-0.4-0.4-0.8-0.4c-0.3,0-0.5,0.1-0.7,0.2c-0.2,0.2-0.4,0.4-0.5,0.7
				c-0.1,0.3-0.1,0.8-0.1,1.4v3.3h-1.8v-3.7c0-0.7,0-1.1-0.1-1.3c-0.1-0.2-0.2-0.3-0.3-0.4c-0.1-0.1-0.3-0.1-0.5-0.1
				c-0.3,0-0.5,0.1-0.7,0.2c-0.2,0.1-0.4,0.4-0.5,0.6c-0.1,0.3-0.1,0.7-0.1,1.4v3.3h-1.8V565.1z"/>
			<path class="st16" d="M850.2,569.7l1.8,0.3c-0.2,0.7-0.6,1.2-1.1,1.5c-0.5,0.3-1.1,0.5-1.9,0.5c-1.2,0-2.1-0.4-2.6-1.2
				c-0.4-0.6-0.7-1.4-0.7-2.3c0-1.1,0.3-2,0.9-2.6c0.6-0.6,1.3-1,2.2-1c1,0,1.8,0.3,2.4,1c0.6,0.7,0.9,1.7,0.8,3.1h-4.5
				c0,0.5,0.2,0.9,0.4,1.2c0.3,0.3,0.6,0.4,1,0.4c0.3,0,0.5-0.1,0.7-0.2C850,570.3,850.1,570,850.2,569.7z M850.3,567.9
				c0-0.5-0.1-0.9-0.4-1.2c-0.3-0.3-0.6-0.4-0.9-0.4c-0.4,0-0.7,0.1-1,0.4c-0.3,0.3-0.4,0.7-0.4,1.2H850.3z"/>
			<path class="st16" d="M859.8,571.9H858v-3.5c0-0.7,0-1.2-0.1-1.4c-0.1-0.2-0.2-0.4-0.4-0.5c-0.2-0.1-0.4-0.2-0.6-0.2
				c-0.3,0-0.6,0.1-0.8,0.3c-0.2,0.2-0.4,0.4-0.5,0.7c-0.1,0.3-0.1,0.8-0.1,1.6v3.1h-1.8v-6.8h1.7v1c0.6-0.8,1.3-1.2,2.2-1.2
				c0.4,0,0.8,0.1,1.1,0.2c0.3,0.1,0.6,0.3,0.7,0.5c0.2,0.2,0.3,0.5,0.4,0.8c0.1,0.3,0.1,0.7,0.1,1.2V571.9z"/>
			<path class="st16" d="M861,569.9l1.8-0.3c0.1,0.4,0.2,0.6,0.5,0.8c0.2,0.2,0.6,0.3,1,0.3c0.5,0,0.8-0.1,1-0.3
				c0.2-0.1,0.2-0.3,0.2-0.5c0-0.1,0-0.2-0.1-0.3c-0.1-0.1-0.3-0.2-0.6-0.2c-1.5-0.3-2.4-0.6-2.8-0.9c-0.5-0.4-0.8-0.9-0.8-1.5
				c0-0.6,0.2-1.1,0.7-1.5c0.5-0.4,1.2-0.6,2.2-0.6c0.9,0,1.6,0.2,2.1,0.5c0.5,0.3,0.8,0.8,0.9,1.3l-1.7,0.3
				c-0.1-0.3-0.2-0.5-0.4-0.6c-0.2-0.1-0.5-0.2-0.9-0.2c-0.5,0-0.8,0.1-1,0.2c-0.1,0.1-0.2,0.2-0.2,0.4c0,0.1,0.1,0.2,0.2,0.3
				c0.2,0.1,0.7,0.3,1.7,0.5c1,0.2,1.6,0.5,2,0.8c0.4,0.3,0.6,0.8,0.6,1.3c0,0.6-0.3,1.2-0.8,1.6s-1.3,0.7-2.3,0.7
				c-0.9,0-1.7-0.2-2.2-0.6C861.5,571.1,861.1,570.6,861,569.9z"/>
			<path class="st16" d="M868.9,564.1v-1.7h1.8v1.7H868.9z M868.9,571.9v-6.8h1.8v6.8H868.9z"/>
			<path class="st16" d="M872.1,568.4c0-0.6,0.1-1.2,0.4-1.7c0.3-0.6,0.7-1,1.3-1.3c0.5-0.3,1.1-0.4,1.8-0.4c1,0,1.9,0.3,2.5,1
				c0.7,0.7,1,1.5,1,2.5c0,1-0.3,1.9-1,2.6c-0.7,0.7-1.5,1-2.5,1c-0.6,0-1.2-0.1-1.8-0.4c-0.6-0.3-1-0.7-1.3-1.2
				C872.3,569.8,872.1,569.2,872.1,568.4z M873.9,568.5c0,0.7,0.2,1.2,0.5,1.5s0.7,0.5,1.2,0.5s0.9-0.2,1.2-0.5
				c0.3-0.4,0.5-0.9,0.5-1.6c0-0.7-0.2-1.2-0.5-1.5c-0.3-0.4-0.7-0.5-1.2-0.5s-0.9,0.2-1.2,0.5C874.1,567.3,873.9,567.8,873.9,568.5
				z"/>
			<path class="st16" d="M886.7,571.9h-1.8v-3.5c0-0.7,0-1.2-0.1-1.4c-0.1-0.2-0.2-0.4-0.4-0.5c-0.2-0.1-0.4-0.2-0.6-0.2
				c-0.3,0-0.6,0.1-0.8,0.3c-0.2,0.2-0.4,0.4-0.5,0.7c-0.1,0.3-0.1,0.8-0.1,1.6v3.1h-1.8v-6.8h1.7v1c0.6-0.8,1.3-1.2,2.2-1.2
				c0.4,0,0.8,0.1,1.1,0.2c0.3,0.1,0.6,0.3,0.7,0.5c0.2,0.2,0.3,0.5,0.4,0.8c0.1,0.3,0.1,0.7,0.1,1.2V571.9z"/>
			<path class="st16" d="M892.5,569.7l1.8,0.3c-0.2,0.7-0.6,1.2-1.1,1.5c-0.5,0.3-1.1,0.5-1.9,0.5c-1.2,0-2.1-0.4-2.6-1.2
				c-0.4-0.6-0.7-1.4-0.7-2.3c0-1.1,0.3-2,0.9-2.6c0.6-0.6,1.3-1,2.2-1c1,0,1.8,0.3,2.4,1c0.6,0.7,0.9,1.7,0.8,3.1h-4.5
				c0,0.5,0.2,0.9,0.4,1.2c0.3,0.3,0.6,0.4,1,0.4c0.3,0,0.5-0.1,0.7-0.2C892.2,570.3,892.4,570,892.5,569.7z M892.6,567.9
				c0-0.5-0.1-0.9-0.4-1.2c-0.3-0.3-0.6-0.4-0.9-0.4c-0.4,0-0.7,0.1-1,0.4c-0.3,0.3-0.4,0.7-0.4,1.2H892.6z"/>
			<path class="st16" d="M895.2,569.9l1.8-0.3c0.1,0.4,0.2,0.6,0.5,0.8c0.2,0.2,0.6,0.3,1,0.3c0.5,0,0.8-0.1,1-0.3
				c0.2-0.1,0.2-0.3,0.2-0.5c0-0.1,0-0.2-0.1-0.3c-0.1-0.1-0.3-0.2-0.6-0.2c-1.5-0.3-2.4-0.6-2.8-0.9c-0.5-0.4-0.8-0.9-0.8-1.5
				c0-0.6,0.2-1.1,0.7-1.5c0.5-0.4,1.2-0.6,2.2-0.6c0.9,0,1.6,0.2,2.1,0.5c0.5,0.3,0.8,0.8,0.9,1.3l-1.7,0.3
				c-0.1-0.3-0.2-0.5-0.4-0.6c-0.2-0.1-0.5-0.2-0.9-0.2c-0.5,0-0.8,0.1-1,0.2c-0.1,0.1-0.2,0.2-0.2,0.4c0,0.1,0.1,0.2,0.2,0.3
				c0.2,0.1,0.7,0.3,1.7,0.5c1,0.2,1.6,0.5,2,0.8c0.4,0.3,0.6,0.8,0.6,1.3c0,0.6-0.3,1.2-0.8,1.6s-1.3,0.7-2.3,0.7
				c-0.9,0-1.7-0.2-2.2-0.6C895.7,571.1,895.4,570.6,895.2,569.9z"/>
		</g>
	</g>
	<g>
		<g>
			<path class="st16" d="M80.4,71.6l1.6,0.5c-0.2,0.9-0.6,1.5-1.2,2c-0.6,0.4-1.3,0.6-2.1,0.6c-1.1,0-1.9-0.4-2.6-1.1s-1-1.7-1-3
				c0-1.3,0.3-2.4,1-3.1s1.6-1.1,2.7-1.1c1,0,1.8,0.3,2.4,0.9c0.4,0.3,0.6,0.8,0.8,1.5l-1.6,0.4c-0.1-0.4-0.3-0.7-0.6-1
				s-0.7-0.4-1.1-0.4c-0.6,0-1.1,0.2-1.5,0.6c-0.4,0.4-0.6,1.1-0.6,2.1c0,1,0.2,1.7,0.5,2.2c0.4,0.4,0.8,0.6,1.4,0.6
				c0.4,0,0.8-0.1,1.1-0.4C80,72.6,80.2,72.2,80.4,71.6z"/>
			<path class="st16" d="M83,71.5c0-0.5,0.1-1,0.4-1.5s0.6-0.8,1.1-1.1s1-0.4,1.5-0.4c0.9,0,1.6,0.3,2.2,0.9
				c0.6,0.6,0.8,1.3,0.8,2.2c0,0.9-0.3,1.6-0.9,2.2s-1.3,0.9-2.1,0.9c-0.5,0-1-0.1-1.5-0.4c-0.5-0.2-0.9-0.6-1.1-1.1
				S83,72.2,83,71.5z M84.5,71.6c0,0.6,0.1,1,0.4,1.3c0.3,0.3,0.6,0.5,1,0.5s0.7-0.2,1-0.5s0.4-0.8,0.4-1.3c0-0.6-0.1-1-0.4-1.3
				s-0.6-0.5-1-0.5s-0.7,0.2-1,0.5C84.7,70.6,84.5,71,84.5,71.6z"/>
			<path class="st16" d="M93.6,72.7l1.5,0.3c-0.2,0.6-0.5,1-0.9,1.3c-0.4,0.3-1,0.4-1.6,0.4c-1,0-1.8-0.3-2.2-1
				c-0.4-0.5-0.6-1.2-0.6-2c0-1,0.3-1.7,0.8-2.3c0.5-0.5,1.1-0.8,1.9-0.8c0.9,0,1.6,0.3,2.1,0.9c0.5,0.6,0.7,1.4,0.7,2.6h-3.9
				c0,0.5,0.1,0.8,0.4,1.1c0.2,0.3,0.5,0.4,0.9,0.4c0.2,0,0.4-0.1,0.6-0.2C93.3,73.2,93.5,73,93.6,72.7z M93.6,71.1
				c0-0.4-0.1-0.8-0.3-1c-0.2-0.2-0.5-0.3-0.8-0.3c-0.3,0-0.6,0.1-0.8,0.4c-0.2,0.2-0.3,0.6-0.3,1H93.6z"/>
			<path class="st16" d="M95.8,68.7h0.9v-0.4c0-0.5,0.1-0.9,0.2-1.1c0.1-0.2,0.3-0.4,0.6-0.6c0.3-0.2,0.6-0.2,1.1-0.2
				c0.4,0,0.9,0.1,1.3,0.2l-0.2,1.1c-0.2-0.1-0.5-0.1-0.7-0.1c-0.2,0-0.4,0.1-0.5,0.2c-0.1,0.1-0.1,0.3-0.1,0.6v0.4h1.2v1.2h-1.2
				v4.6h-1.5v-4.6h-0.9V68.7z"/>
			<path class="st16" d="M100.2,67.9v-1.4h1.5v1.4H100.2z M100.2,74.5v-5.8h1.5v5.8H100.2z"/>
			<path class="st16" d="M108.4,70.4l-1.5,0.3c-0.1-0.3-0.2-0.5-0.3-0.7s-0.4-0.2-0.7-0.2c-0.4,0-0.7,0.1-0.9,0.4
				c-0.2,0.3-0.3,0.7-0.3,1.3c0,0.7,0.1,1.2,0.3,1.5c0.2,0.3,0.5,0.4,0.9,0.4c0.3,0,0.5-0.1,0.7-0.2c0.2-0.2,0.3-0.5,0.4-0.9
				l1.5,0.3c-0.2,0.7-0.5,1.2-0.9,1.6s-1,0.5-1.8,0.5c-0.9,0-1.5-0.3-2-0.8c-0.5-0.5-0.8-1.3-0.8-2.2c0-1,0.3-1.7,0.8-2.2
				c0.5-0.5,1.2-0.8,2.1-0.8c0.7,0,1.3,0.2,1.7,0.5C107.9,69.3,108.2,69.8,108.4,70.4z"/>
			<path class="st16" d="M109.5,67.9v-1.4h1.5v1.4H109.5z M109.5,74.5v-5.8h1.5v5.8H109.5z"/>
			<path class="st16" d="M116,72.7l1.5,0.3c-0.2,0.6-0.5,1-0.9,1.3c-0.4,0.3-1,0.4-1.6,0.4c-1,0-1.8-0.3-2.2-1
				c-0.4-0.5-0.6-1.2-0.6-2c0-1,0.3-1.7,0.8-2.3c0.5-0.5,1.1-0.8,1.9-0.8c0.9,0,1.6,0.3,2.1,0.9c0.5,0.6,0.7,1.4,0.7,2.6h-3.9
				c0,0.5,0.1,0.8,0.4,1.1c0.2,0.3,0.5,0.4,0.9,0.4c0.2,0,0.4-0.1,0.6-0.2C115.8,73.2,115.9,73,116,72.7z M116.1,71.1
				c0-0.4-0.1-0.8-0.3-1c-0.2-0.2-0.5-0.3-0.8-0.3c-0.3,0-0.6,0.1-0.8,0.4s-0.3,0.6-0.3,1H116.1z"/>
			<path class="st16" d="M124.2,74.5h-1.5v-3c0-0.6,0-1-0.1-1.2c-0.1-0.2-0.2-0.3-0.3-0.4c-0.1-0.1-0.3-0.2-0.5-0.2
				c-0.3,0-0.5,0.1-0.7,0.2c-0.2,0.1-0.4,0.3-0.4,0.6s-0.1,0.7-0.1,1.3v2.6h-1.5v-5.8h1.4v0.9c0.5-0.7,1.1-1,1.9-1
				c0.3,0,0.7,0.1,0.9,0.2s0.5,0.3,0.6,0.5c0.1,0.2,0.2,0.4,0.3,0.6s0.1,0.6,0.1,1V74.5z"/>
			<path class="st16" d="M128.4,68.7v1.2h-1.1v2.3c0,0.5,0,0.8,0,0.8c0,0.1,0.1,0.1,0.1,0.2s0.2,0.1,0.3,0.1c0.1,0,0.3,0,0.6-0.1
				l0.1,1.2c-0.4,0.2-0.8,0.2-1.2,0.2c-0.3,0-0.5,0-0.8-0.1c-0.2-0.1-0.4-0.2-0.5-0.4s-0.2-0.3-0.2-0.6c0-0.2,0-0.5,0-1.1v-2.5h-0.7
				v-1.2h0.7v-1.2l1.5-0.9v2.1H128.4z"/>
			<path class="st16" d="M132.9,72.7l1.5,0.3c-0.2,0.6-0.5,1-0.9,1.3c-0.4,0.3-1,0.4-1.6,0.4c-1,0-1.8-0.3-2.2-1
				c-0.4-0.5-0.6-1.2-0.6-2c0-1,0.3-1.7,0.8-2.3c0.5-0.5,1.1-0.8,1.9-0.8c0.9,0,1.6,0.3,2.1,0.9c0.5,0.6,0.7,1.4,0.7,2.6h-3.9
				c0,0.5,0.1,0.8,0.4,1.1c0.2,0.3,0.5,0.4,0.9,0.4c0.2,0,0.4-0.1,0.6-0.2C132.7,73.2,132.8,73,132.9,72.7z M133,71.1
				c0-0.4-0.1-0.8-0.3-1c-0.2-0.2-0.5-0.3-0.8-0.3c-0.3,0-0.6,0.1-0.8,0.4c-0.2,0.2-0.3,0.6-0.3,1H133z"/>
			<path class="st16" d="M144.2,74.5h-1.4v-0.9c-0.2,0.3-0.5,0.6-0.8,0.7c-0.3,0.2-0.6,0.2-1,0.2c-0.7,0-1.2-0.3-1.7-0.8
				c-0.5-0.5-0.7-1.3-0.7-2.3c0-1,0.2-1.7,0.7-2.3c0.5-0.5,1.1-0.8,1.8-0.8c0.7,0,1.2,0.3,1.7,0.8v-2.9h1.5V74.5z M140.1,71.5
				c0,0.6,0.1,1.1,0.3,1.3c0.2,0.4,0.6,0.6,1,0.6c0.4,0,0.7-0.2,0.9-0.5c0.2-0.3,0.4-0.8,0.4-1.4c0-0.7-0.1-1.2-0.4-1.4
				c-0.2-0.3-0.6-0.4-0.9-0.4c-0.4,0-0.7,0.1-0.9,0.4C140.2,70.5,140.1,70.9,140.1,71.5z"/>
			<path class="st16" d="M149.1,72.7l1.5,0.3c-0.2,0.6-0.5,1-0.9,1.3c-0.4,0.3-1,0.4-1.6,0.4c-1,0-1.8-0.3-2.2-1
				c-0.4-0.5-0.6-1.2-0.6-2c0-1,0.3-1.7,0.8-2.3c0.5-0.5,1.1-0.8,1.9-0.8c0.9,0,1.6,0.3,2.1,0.9c0.5,0.6,0.7,1.4,0.7,2.6h-3.9
				c0,0.5,0.1,0.8,0.4,1.1c0.2,0.3,0.5,0.4,0.9,0.4c0.2,0,0.4-0.1,0.6-0.2C148.9,73.2,149,73,149.1,72.7z M149.2,71.1
				c0-0.4-0.1-0.8-0.3-1c-0.2-0.2-0.5-0.3-0.8-0.3c-0.3,0-0.6,0.1-0.8,0.4c-0.2,0.2-0.3,0.6-0.3,1H149.2z"/>
			<path class="st16" d="M156.7,74.5l-2.3-5.8h1.6l1.1,3l0.3,1c0.1-0.3,0.1-0.4,0.2-0.5c0.1-0.2,0.1-0.3,0.2-0.5l1.1-3h1.6l-2.3,5.8
				H156.7z"/>
			<path class="st16" d="M162.5,70.5l-1.4-0.3c0.2-0.6,0.4-1,0.8-1.3c0.4-0.3,1-0.4,1.7-0.4c0.7,0,1.2,0.1,1.5,0.2
				c0.3,0.2,0.6,0.4,0.7,0.6c0.1,0.3,0.2,0.7,0.2,1.4l0,1.8c0,0.5,0,0.9,0.1,1.1c0,0.2,0.1,0.5,0.3,0.8h-1.5c0-0.1-0.1-0.3-0.1-0.5
				c0-0.1,0-0.2-0.1-0.2c-0.3,0.3-0.5,0.4-0.8,0.6s-0.6,0.2-1,0.2c-0.6,0-1.1-0.2-1.4-0.5c-0.3-0.3-0.5-0.7-0.5-1.2
				c0-0.3,0.1-0.6,0.2-0.9c0.2-0.3,0.4-0.5,0.7-0.6c0.3-0.1,0.7-0.3,1.2-0.4c0.7-0.1,1.2-0.3,1.5-0.4v-0.2c0-0.3-0.1-0.5-0.2-0.6
				c-0.1-0.1-0.4-0.2-0.8-0.2c-0.3,0-0.5,0.1-0.6,0.2S162.6,70.2,162.5,70.5z M164.6,71.7c-0.2,0.1-0.5,0.1-0.9,0.2
				c-0.4,0.1-0.7,0.2-0.8,0.3c-0.2,0.1-0.3,0.3-0.3,0.5c0,0.2,0.1,0.4,0.2,0.6c0.2,0.2,0.4,0.2,0.6,0.2c0.3,0,0.5-0.1,0.8-0.3
				c0.2-0.1,0.3-0.3,0.4-0.5c0-0.1,0.1-0.4,0.1-0.8V71.7z"/>
			<path class="st16" d="M169.1,74.5h-1.5v-5.8h1.4v0.8c0.2-0.4,0.5-0.6,0.7-0.8s0.4-0.2,0.7-0.2c0.4,0,0.7,0.1,1,0.3l-0.5,1.3
				c-0.3-0.2-0.5-0.3-0.7-0.3c-0.2,0-0.4,0.1-0.5,0.2c-0.1,0.1-0.3,0.3-0.4,0.6c-0.1,0.3-0.1,1-0.1,2V74.5z"/>
			<path class="st16" d="M172,67.9v-1.4h1.5v1.4H172z M172,74.5v-5.8h1.5v5.8H172z"/>
			<path class="st16" d="M176.2,70.5l-1.4-0.3c0.2-0.6,0.4-1,0.8-1.3c0.4-0.3,1-0.4,1.7-0.4c0.7,0,1.2,0.1,1.5,0.2
				c0.3,0.2,0.6,0.4,0.7,0.6c0.1,0.3,0.2,0.7,0.2,1.4l0,1.8c0,0.5,0,0.9,0.1,1.1c0,0.2,0.1,0.5,0.3,0.8h-1.5c0-0.1-0.1-0.3-0.1-0.5
				c0-0.1,0-0.2-0.1-0.2c-0.3,0.3-0.5,0.4-0.8,0.6c-0.3,0.1-0.6,0.2-1,0.2c-0.6,0-1.1-0.2-1.4-0.5c-0.3-0.3-0.5-0.7-0.5-1.2
				c0-0.3,0.1-0.6,0.2-0.9c0.2-0.3,0.4-0.5,0.7-0.6c0.3-0.1,0.7-0.3,1.2-0.4c0.7-0.1,1.2-0.3,1.5-0.4v-0.2c0-0.3-0.1-0.5-0.2-0.6
				c-0.1-0.1-0.4-0.2-0.8-0.2c-0.3,0-0.5,0.1-0.6,0.2S176.3,70.2,176.2,70.5z M178.3,71.7c-0.2,0.1-0.5,0.1-0.9,0.2
				c-0.4,0.1-0.7,0.2-0.8,0.3c-0.2,0.1-0.3,0.3-0.3,0.5c0,0.2,0.1,0.4,0.2,0.6c0.2,0.2,0.4,0.2,0.6,0.2c0.3,0,0.5-0.1,0.8-0.3
				c0.2-0.1,0.3-0.3,0.4-0.5c0-0.1,0.1-0.4,0.1-0.8V71.7z"/>
			<path class="st16" d="M181.3,74.5v-8h1.5v2.9c0.5-0.5,1-0.8,1.7-0.8c0.7,0,1.3,0.3,1.8,0.8s0.7,1.3,0.7,2.2c0,1-0.2,1.8-0.7,2.3
				c-0.5,0.5-1,0.8-1.7,0.8c-0.3,0-0.7-0.1-1-0.2c-0.3-0.2-0.6-0.4-0.8-0.7v0.9H181.3z M182.8,71.5c0,0.6,0.1,1,0.3,1.3
				c0.3,0.4,0.6,0.6,1.1,0.6c0.3,0,0.6-0.1,0.9-0.4c0.2-0.3,0.4-0.7,0.4-1.4c0-0.7-0.1-1.1-0.4-1.4c-0.2-0.3-0.6-0.4-0.9-0.4
				c-0.4,0-0.7,0.1-0.9,0.4C182.9,70.5,182.8,70.9,182.8,71.5z"/>
			<path class="st16" d="M188.2,67.9v-1.4h1.5v1.4H188.2z M188.2,74.5v-5.8h1.5v5.8H188.2z"/>
			<path class="st16" d="M191.3,74.5v-8h1.5v8H191.3z"/>
			<path class="st16" d="M194.4,67.9v-1.4h1.5v1.4H194.4z M194.4,74.5v-5.8h1.5v5.8H194.4z"/>
			<path class="st16" d="M202.9,74.5h-1.4v-0.9c-0.2,0.3-0.5,0.6-0.8,0.7c-0.3,0.2-0.6,0.2-1,0.2c-0.7,0-1.2-0.3-1.7-0.8
				s-0.7-1.3-0.7-2.3c0-1,0.2-1.7,0.7-2.3s1.1-0.8,1.8-0.8c0.7,0,1.2,0.3,1.7,0.8v-2.9h1.5V74.5z M198.8,71.5c0,0.6,0.1,1.1,0.3,1.3
				c0.2,0.4,0.6,0.6,1,0.6c0.4,0,0.7-0.2,0.9-0.5s0.4-0.8,0.4-1.4c0-0.7-0.1-1.2-0.4-1.4c-0.2-0.3-0.6-0.4-0.9-0.4
				c-0.4,0-0.7,0.1-0.9,0.4C198.9,70.5,198.8,70.9,198.8,71.5z"/>
			<path class="st16" d="M205.6,70.5l-1.4-0.3c0.2-0.6,0.4-1,0.8-1.3s1-0.4,1.7-0.4c0.7,0,1.2,0.1,1.5,0.2c0.3,0.2,0.6,0.4,0.7,0.6
				c0.1,0.3,0.2,0.7,0.2,1.4l0,1.8c0,0.5,0,0.9,0.1,1.1c0,0.2,0.1,0.5,0.3,0.8H208c0-0.1-0.1-0.3-0.1-0.5c0-0.1,0-0.2-0.1-0.2
				c-0.3,0.3-0.5,0.4-0.8,0.6c-0.3,0.1-0.6,0.2-1,0.2c-0.6,0-1.1-0.2-1.4-0.5c-0.3-0.3-0.5-0.7-0.5-1.2c0-0.3,0.1-0.6,0.2-0.9
				c0.2-0.3,0.4-0.5,0.7-0.6c0.3-0.1,0.7-0.3,1.2-0.4c0.7-0.1,1.2-0.3,1.5-0.4v-0.2c0-0.3-0.1-0.5-0.2-0.6c-0.1-0.1-0.4-0.2-0.8-0.2
				c-0.3,0-0.5,0.1-0.6,0.2S205.7,70.2,205.6,70.5z M207.6,71.7c-0.2,0.1-0.5,0.1-0.9,0.2c-0.4,0.1-0.7,0.2-0.8,0.3
				c-0.2,0.1-0.3,0.3-0.3,0.5c0,0.2,0.1,0.4,0.2,0.6s0.4,0.2,0.6,0.2c0.3,0,0.5-0.1,0.8-0.3c0.2-0.1,0.3-0.3,0.4-0.5
				c0-0.1,0.1-0.4,0.1-0.8V71.7z"/>
			<path class="st16" d="M216,74.5h-1.4v-0.9c-0.2,0.3-0.5,0.6-0.8,0.7c-0.3,0.2-0.6,0.2-1,0.2c-0.7,0-1.2-0.3-1.7-0.8
				c-0.5-0.5-0.7-1.3-0.7-2.3c0-1,0.2-1.7,0.7-2.3c0.5-0.5,1.1-0.8,1.8-0.8c0.7,0,1.2,0.3,1.7,0.8v-2.9h1.5V74.5z M211.9,71.5
				c0,0.6,0.1,1.1,0.3,1.3c0.2,0.4,0.6,0.6,1,0.6c0.4,0,0.7-0.2,0.9-0.5c0.2-0.3,0.4-0.8,0.4-1.4c0-0.7-0.1-1.2-0.4-1.4
				c-0.2-0.3-0.6-0.4-0.9-0.4c-0.4,0-0.7,0.1-0.9,0.4C212,70.5,211.9,70.9,211.9,71.5z"/>
		</g>
	</g>
</g>
</svg>
