<svg xmlns="http://www.w3.org/2000/svg" width="1080" height="580"><rect width="1080" height="580" x="0" y="0" fill="#FFFFFF" id="backgorund"/><g id="viz"><g transform="translate(0,0)"><g transform="translate(50,20)"><g class="bars"><rect id="undefined - 2011" x="688.0015704750685" y="270" height="270" width="51.994503337259516" fill="#f5a623"/><rect id="undefined - 2020" x="739.9960738123281" y="270" height="270" width="51.994503337259516" fill="#f8e71c"/><rect id="undefined - 2011" x="556.0031409501373" y="81.00000000000001" height="459" width="51.994503337259516" fill="#f5a623"/><rect id="undefined - 2020" x="607.9976442873968" y="108.00000000000004" height="431.99999999999994" width="51.994503337259516" fill="#f8e71c"/><rect id="undefined - 2011" x="424.0047114252061" y="229.50000000000003" height="310.5" width="51.994503337259516" fill="#f5a623"/><rect id="undefined - 2020" x="475.9992147624656" y="364.5" height="175.5" width="51.994503337259516" fill="#f8e71c"/><rect id="undefined - 2011" x="292.0062819002748" y="256.50000000000006" height="283.49999999999994" width="51.994503337259516" fill="#f5a623"/><rect id="undefined - 2020" x="344.00078523753433" y="337.5" height="202.5" width="51.994503337259516" fill="#f8e71c"/><rect id="undefined - 2011" x="160.00785237534353" y="337.5" height="202.5" width="51.994503337259516" fill="#f5a623"/><rect id="undefined - 2020" x="212.00235571260305" y="378" height="162" width="51.994503337259516" fill="#f8e71c"/><rect id="undefined - 2011" x="28.00942285041225" y="54.00000000000005" height="485.99999999999994" width="51.994503337259516" fill="#f5a623"/><rect id="undefined - 2020" x="80.00392618767177" y="67.50000000000006" height="472.49999999999994" width="51.994503337259516" fill="#f8e71c"/></g><g id="xAxis" transform="translate(0,540)" fill="none" font-size="10" font-family="sans-serif" text-anchor="middle"><path class="domain" stroke="currentColor" d="M0.5,0.5H820.5"/><g class="tick" opacity="1" transform="translate(80.00392618767177,0)"><line stroke="currentColor" y2="6"/><text fill="currentColor" y="9" dy="0.71em">Vivienda y entorno</text></g><g class="tick" opacity="1" transform="translate(212.00235571260305,0)"><line stroke="currentColor" y2="6"/><text fill="currentColor" y="9" dy="0.71em">Salud y medioambiente</text></g><g class="tick" opacity="1" transform="translate(344.00078523753433,0)"><line stroke="currentColor" y2="6"/><text fill="currentColor" y="9" dy="0.71em">Conectividad y movilidad</text></g><g class="tick" opacity="1" transform="translate(475.9992147624656,0)"><line stroke="currentColor" y2="6"/><text fill="currentColor" y="9" dy="0.71em">Condiciones socioculturales</text></g><g class="tick" opacity="1" transform="translate(607.9976442873968,0)"><line stroke="currentColor" y2="6"/><text fill="currentColor" y="9" dy="0.71em">Ambiente de negocios</text></g><g class="tick" opacity="1" transform="translate(739.9960738123281,0)"><line stroke="currentColor" y2="6"/><text fill="currentColor" y="9" dy="0.71em">Condiciones laborales</text></g></g><g id="yAxis" fill="none" font-size="10" font-family="sans-serif" text-anchor="end"><path class="domain" stroke="currentColor" d="M0.5,540.5V0.5"/><g class="tick" opacity="1" transform="translate(0,540.5)"><line stroke="currentColor" x2="-6"/><text fill="currentColor" x="-9" dy="0.32em">0.00</text></g><g class="tick" opacity="1" transform="translate(0,473)"><line stroke="currentColor" x2="-6"/><text fill="currentColor" x="-9" dy="0.32em">0.05</text></g><g class="tick" opacity="1" transform="translate(0,405.5)"><line stroke="currentColor" x2="-6"/><text fill="currentColor" x="-9" dy="0.32em">0.10</text></g><g class="tick" opacity="1" transform="translate(0,338)"><line stroke="currentColor" x2="-6"/><text fill="currentColor" x="-9" dy="0.32em">0.15</text></g><g class="tick" opacity="1" transform="translate(0,270.5)"><line stroke="currentColor" x2="-6"/><text fill="currentColor" x="-9" dy="0.32em">0.20</text></g><g class="tick" opacity="1" transform="translate(0,203)"><line stroke="currentColor" x2="-6"/><text fill="currentColor" x="-9" dy="0.32em">0.25</text></g><g class="tick" opacity="1" transform="translate(0,135.50000000000006)"><line stroke="currentColor" x2="-6"/><text fill="currentColor" x="-9" dy="0.32em">0.30</text></g><g class="tick" opacity="1" transform="translate(0,68.00000000000006)"><line stroke="currentColor" x2="-6"/><text fill="currentColor" x="-9" dy="0.32em">0.35</text></g><g class="tick" opacity="1" transform="translate(0,0.5)"><line stroke="currentColor" x2="-6"/><text fill="currentColor" x="-9" dy="0.32em">0.40</text></g></g><text y="536" x="820" text-anchor="end" style="font-family: Arial, sans-serif; font-size: 12px; fill: rgb(123, 123, 123); font-weight: bold;">Sets</text><text y="0" x="4" dominant-baseline="hanging" text-anchor="start" style="font-family: Arial, sans-serif; font-size: 12px; fill: rgb(123, 123, 123); font-weight: bold;">Value</text></g><text x="4" y="4" style="font-family: Arial, sans-serif; font-size: 12px; fill: black; font-weight: bold; dominant-baseline: hanging;"/></g><g id="grid"><rect x="0" y="0" width="880" height="580" fill="none" stroke="#ccc"/></g></g><g id="legend" transform="translate(880,20)"><g transform="translate(5,0)"><g class="legendColor" transform="translate(0,0)"><g class="legendCells" transform="translate(0,16)"><g class="cell" transform="translate(0, 0)"><rect class="swatch" height="15" width="15" style="fill: rgb(245, 166, 35);"/><text class="label" transform="translate( 20, 12.5)" font-family="&quot;Arial&quot;, sans-serif" font-size="10px"><tspan x="0" dy="0em">2011</tspan></text></g><g class="cell" transform="translate(0, 21)"><rect class="swatch" height="15" width="15" style="fill: rgb(248, 231, 28);"/><text class="label" transform="translate( 20, 12.5)" font-family="&quot;Arial&quot;, sans-serif" font-size="10px"><tspan x="0" dy="0em">2020</tspan></text></g></g><text class="legendTitle" font-family="&quot;Arial&quot;, sans-serif" font-size="12px" font-weight="bold"><tspan x="0" dy="0em">Colors</tspan></text></g></g></g></svg>