<?xml version="1.0" encoding="utf-8"?>
<!-- Generator: Adobe Illustrator 24.0.1, SVG Export Plug-In . SVG Version: 6.00 Build 0)  -->
<svg version="1.1" xmlns="http://www.w3.org/2000/svg" xmlns:xlink="http://www.w3.org/1999/xlink" x="0px" y="0px"
	 viewBox="0 0 1005.6 669.3" style="enable-background:new 0 0 1005.6 669.3;" xml:space="preserve">
<style type="text/css">
	.st0{fill:#4A4EE2;}
	.st1{fill:#50E3C2;}
	.st2{fill:none;stroke:#000000;}
	.st3{font-family:'Helvetica';}
	.st4{font-size:10px;}
	.st5{enable-background:new    ;}
	.st6{font-size:15px;}
	.st7{fill:none;}
	.st8{font-family:'MyriadPro-Bold';}
	.st9{font-size:30px;}
	.st10{font-family:'MyriadPro-Regular';}
	.st11{font-size:25px;}
	.st12{font-family:'MyriadPro-Light';}
	.st13{font-family:'MyriadPro-It';}
</style>
<g id="Capa_1">
	<rect id="undefined_-_2020" x="258" y="454.4" class="st0" width="65" height="153"/>
	<rect id="undefined_-_2011" x="192" y="441.6" class="st1" width="65" height="165.8"/>
	<rect id="undefined_-_2020_1_" x="121" y="339.6" class="st0" width="65" height="267.8"/>
	<rect id="undefined_-_2011_1_" x="55" y="352.4" class="st1" width="65" height="255"/>
	<g>
		<rect id="undefined_-_2020_2_" x="395" y="435.2" class="st0" width="65" height="172.1"/>
		<rect id="undefined_-_2011_2_" x="329" y="333.2" class="st1" width="65" height="274.1"/>
	</g>
	<g>
		<rect id="undefined_-_2020_3_" x="531.7" y="486.2" class="st0" width="65" height="121.1"/>
		<rect id="undefined_-_2011_3_" x="465.7" y="518.1" class="st1" width="65" height="89.3"/>
	</g>
	<g>
		<rect id="undefined_-_2020_4_" x="668.9" y="518.1" class="st0" width="65" height="89.3"/>
		<rect id="undefined_-_2011_4_" x="602.8" y="460.7" class="st1" width="65" height="146.6"/>
	</g>
	<g>
		<rect id="undefined_-_2020_5_" x="806" y="180.2" class="st0" width="65" height="427.1"/>
		<rect id="undefined_-_2011_5_" x="740" y="154.7" class="st1" width="65" height="452.6"/>
	</g>
	<path class="st2" d="M50.5,607.9h826"/>
	<line class="st2" x1="120.5" y1="607.4" x2="120.5" y2="613.4"/>
	<line class="st2" x1="257.5" y1="607.4" x2="257.5" y2="613.4"/>
	<line class="st2" x1="394.5" y1="607.4" x2="394.5" y2="613.4"/>
	<line class="st2" x1="531.5" y1="607.4" x2="531.5" y2="613.4"/>
	<line class="st2" x1="668.5" y1="607.4" x2="668.5" y2="613.4"/>
	<line class="st2" x1="805.5" y1="607.4" x2="805.5" y2="613.4"/>
	<g id="yAxis">
		<path class="st2" d="M50.5,607.9v-510"/>
		<g transform="translate(0,510.5)">
			<line class="st2" x1="50" y1="97.4" x2="44" y2="97.4"/>
			<text transform="matrix(1 0 0 1 27.0986 100.5571)" class="st3 st4">0.0</text>
		</g>
		<g transform="translate(0,446.75)">
			<line class="st2" x1="50" y1="97.4" x2="44" y2="97.4"/>
			<text transform="matrix(1 0 0 1 27.0986 100.5571)" class="st3 st4">0.1</text>
		</g>
		<g transform="translate(0,383)">
			<line class="st2" x1="50" y1="97.4" x2="44" y2="97.4"/>
			<text transform="matrix(1 0 0 1 27.0986 100.5571)" class="st3 st4">0.2</text>
		</g>
		<g transform="translate(0,319.25)">
			<line class="st2" x1="50" y1="97.4" x2="44" y2="97.4"/>
			<text transform="matrix(1 0 0 1 27.0986 100.5571)" class="st3 st4">0.3</text>
		</g>
		<g transform="translate(0,255.5)">
			<line class="st2" x1="50" y1="97.4" x2="44" y2="97.4"/>
			<text transform="matrix(1 0 0 1 27.0986 100.5572)" class="st3 st4">0.4</text>
		</g>
		<g transform="translate(0,191.75)">
			<line class="st2" x1="50" y1="97.4" x2="44" y2="97.4"/>
			<text transform="matrix(1 0 0 1 27.0986 100.5572)" class="st3 st4">0.5</text>
		</g>
		<g transform="translate(0,128.00000000000006)">
			<line class="st2" x1="50" y1="97.4" x2="44" y2="97.4"/>
			<text transform="matrix(1 0 0 1 27.0986 100.5572)" class="st3 st4">0.6</text>
		</g>
		<g transform="translate(0,64.25000000000006)">
			<line class="st2" x1="50" y1="97.4" x2="44" y2="97.4"/>
			<text transform="matrix(1 0 0 1 27.0986 100.5572)" class="st3 st4">0.7</text>
		</g>
		<g transform="translate(0,0.5)">
			<line class="st2" x1="50" y1="97.4" x2="44" y2="97.4"/>
			<text transform="matrix(1 0 0 1 27.0986 100.5572)" class="st3 st4">0.8</text>
		</g>
	</g>
</g>
<g id="reglas">
</g>
<g id="texto">
	<text transform="matrix(1 0 0 1 71.0144 629.4572)" class="st5"><tspan x="0" y="0" class="st3 st6">Ambiente</tspan><tspan x="0" y="18" class="st3 st6">de negocios</tspan></text>
	<text transform="matrix(1 0 0 1 208.2984 629.4572)" class="st5"><tspan x="0" y="0" class="st3 st6">Condiciones </tspan><tspan x="0" y="18" class="st3 st6">laborales</tspan></text>
	<text transform="matrix(1 0 0 1 332.5208 629.4572)" class="st5"><tspan x="0" y="0" class="st3 st6">Condiciones </tspan><tspan x="0" y="18" class="st3 st6">socioculturales</tspan></text>
	<text transform="matrix(1 0 0 1 476.1964 629.4572)" class="st5"><tspan x="0" y="0" class="st3 st6">Conectividad </tspan><tspan x="0" y="18" class="st3 st6">y movilidad</tspan></text>
	<text transform="matrix(1 0 0 1 616.2514 629.4572)" class="st5"><tspan x="0" y="0" class="st3 st6">Salud </tspan><tspan x="0" y="18" class="st3 st6">y medioambiente</tspan></text>
	<text transform="matrix(1 0 0 1 764.1799 629.4572)" class="st5"><tspan x="0" y="0" class="st3 st6">Vivienda </tspan><tspan x="0" y="18" class="st3 st6">y entorno</tspan></text>
	<rect x="50.5" y="23.8" class="st7" width="690.9" height="58.7"/>
	<text transform="matrix(1 0 0 1 50.5 45.0857)"><tspan x="0" y="0" class="st8 st9">Desigualdades entre comunas, R. Metropolitana</tspan><tspan x="0" y="30" class="st10 st11">Brechas por dimensión ICVU, 2011-2020</tspan></text>
	<rect x="61.8" y="325.2" class="st7" width="51.4" height="14.4"/>
	<text transform="matrix(1 0 0 1 75.1999 335.8571)" class="st12 st6">0,40</text>
	<rect x="127.8" y="325.2" class="st7" width="51.4" height="14.4"/>
	<text transform="matrix(1 0 0 1 141.2149 335.8571)" class="st12 st6">0,42</text>
	<rect x="198.8" y="426.7" class="st7" width="51.4" height="14.4"/>
	<text transform="matrix(1 0 0 1 212.2031 437.3576)" class="st12 st6">0,26</text>
	<rect x="264.8" y="438.6" class="st7" width="51.4" height="14.4"/>
	<text transform="matrix(1 0 0 1 278.2176 449.2826)" class="st12 st6">0,24</text>
	<rect x="335.3" y="317.3" class="st7" width="51.4" height="14.4"/>
	<text transform="matrix(1 0 0 1 348.71 327.9204)" class="st12 st6">0,43</text>
	<rect x="401.3" y="419.5" class="st7" width="51.4" height="14.4"/>
	<text transform="matrix(1 0 0 1 414.7245 430.1576)" class="st12 st6">0,27</text>
	<rect x="472.5" y="503.7" class="st7" width="51.4" height="14.4"/>
	<text transform="matrix(1 0 0 1 485.9217 514.3576)" class="st12 st6">0,14</text>
	<rect x="538.5" y="471.3" class="st7" width="51.4" height="14.4"/>
	<text transform="matrix(1 0 0 1 551.9376 481.9826)" class="st12 st6">0,19</text>
	<rect x="609.8" y="445.8" class="st7" width="51.4" height="14.4"/>
	<text transform="matrix(1 0 0 1 623.2128 456.4826)" class="st12 st6">0,23</text>
	<rect x="675.8" y="503.7" class="st7" width="51.4" height="14.4"/>
	<text transform="matrix(1 0 0 1 689.2277 514.3576)" class="st12 st6">0,14</text>
	<rect x="747.3" y="140.3" class="st7" width="51.4" height="14.4"/>
	<text transform="matrix(1 0 0 1 760.7117 150.9821)" class="st12 st6">0,71</text>
	<rect x="813.3" y="164.8" class="st7" width="51.4" height="14.4"/>
	<text transform="matrix(1 0 0 1 826.7277 175.457)" class="st12 st6">0,67</text>
	<rect x="60.7" y="97.9" class="st7" width="162.4" height="13.2"/>
	<text transform="matrix(1 0 0 1 62.3545 108.507)" class="st13 st6">Coeficiente de variabilidad</text>
	<g>
		<rect x="876.5" y="594.2" class="st7" width="162.4" height="13.2"/>
		<text transform="matrix(1 0 0 1 876.4999 604.8117)" class="st13 st6">dimensión</text>
	</g>
</g>
</svg>
